<?xml version="1.0" standalone="no"?>
<!DOCTYPE svg PUBLIC "-//W3C//DTD SVG 20010904//EN"
 "http://www.w3.org/TR/2001/REC-SVG-20010904/DTD/svg10.dtd">
<svg version="1.0" xmlns="http://www.w3.org/2000/svg"
 width="590.000000pt" height="459.000000pt" viewBox="0 0 590.000000 459.000000"
 preserveAspectRatio="xMidYMid meet">

<g transform="translate(0.000000,459.000000) scale(0.100000,-0.100000)"
fill="#000000" stroke="none">
<path d="M2790 4149 c11 -8 7 -9 -20 -5 -30 4 -32 3 -13 -6 24 -12 58 -4 48
12 -3 5 -12 10 -18 10 -7 0 -6 -4 3 -11z"/>
<path d="M2861 4156 c2 -2 27 -6 54 -9 34 -4 42 -3 25 3 -25 8 -87 13 -79 6z"/>
<path d="M3110 4150 c14 -4 34 -8 45 -8 16 0 15 2 -5 8 -14 4 -34 8 -45 8 -16
0 -15 -2 5 -8z"/>
<path d="M2668 4133 c7 -3 16 -2 19 1 4 3 -2 6 -13 5 -11 0 -14 -3 -6 -6z"/>
<path d="M2628 4123 c7 -3 16 -2 19 1 4 3 -2 6 -13 5 -11 0 -14 -3 -6 -6z"/>
<path d="M2904 4114 c-10 -8 -13 -12 -6 -9 8 4 26 11 40 15 22 7 23 8 6 9 -11
1 -29 -6 -40 -15z"/>
<path d="M3300 4120 c8 -5 20 -10 25 -10 6 0 3 5 -5 10 -8 5 -19 10 -25 10 -5
0 -3 -5 5 -10z"/>
<path d="M2588 4113 c7 -3 16 -2 19 1 4 3 -2 6 -13 5 -11 0 -14 -3 -6 -6z"/>
<path d="M2748 4113 c7 -3 16 -2 19 1 4 3 -2 6 -13 5 -11 0 -14 -3 -6 -6z"/>
<path d="M2832 4109 c16 -11 48 -12 48 -1 0 4 -14 7 -31 8 -20 1 -26 -2 -17
-7z"/>
<path d="M3355 4110 c-4 -6 -3 -9 2 -8 4 1 19 -2 32 -6 14 -5 27 -4 35 4 8 8
7 10 -6 5 -9 -4 -26 -2 -37 4 -13 8 -22 8 -26 1z"/>
<path d="M2636 4099 c2 -4 -6 -10 -18 -12 -18 -3 -16 -4 7 -5 17 0 39 3 50 7
17 7 15 9 -12 13 -18 2 -30 1 -27 -3z"/>
<path d="M3111 4101 c-11 -7 -9 -10 8 -16 13 -4 25 -4 28 -1 4 3 -2 6 -13 6
-16 0 -17 2 -4 10 8 5 11 10 5 10 -5 0 -16 -4 -24 -9z"/>
<path d="M2568 4093 c7 -3 16 -2 19 1 4 3 -2 6 -13 5 -11 0 -14 -3 -6 -6z"/>
<path d="M2768 4093 c7 -3 16 -2 19 1 4 3 -2 6 -13 5 -11 0 -14 -3 -6 -6z"/>
<path d="M3001 4096 c2 -2 18 -6 34 -10 22 -5 26 -4 15 4 -14 9 -59 15 -49 6z"/>
<path d="M3174 4085 c8 -8 20 -15 27 -15 7 0 4 6 -7 15 -25 19 -40 19 -20 0z"/>
<path d="M2713 4083 c9 -2 23 -2 30 0 6 3 -1 5 -18 5 -16 0 -22 -2 -12 -5z"/>
<path d="M3443 4083 c9 -2 25 -2 35 0 9 3 1 5 -18 5 -19 0 -27 -2 -17 -5z"/>
<path d="M2395 4073 c-39 -9 -86 -25 -83 -29 2 -2 28 3 58 11 30 8 63 12 74 9
12 -4 16 -2 12 5 -7 11 -25 12 -61 4z"/>
<path d="M2486 4065 c-16 -8 -38 -13 -50 -9 -21 6 -21 6 -1 -9 12 -10 24 -12
31 -6 6 5 13 6 17 3 3 -3 15 -3 28 1 17 6 19 9 8 16 -11 7 -9 9 8 9 12 0 24
-6 26 -12 4 -10 6 -10 6 0 1 8 10 10 29 6 15 -4 24 -4 21 0 -15 16 -94 16
-123 1z m21 -11 c-3 -3 -12 -4 -19 -1 -8 3 -5 6 6 6 11 1 17 -2 13 -5z"/>
<path d="M3277 4066 c-4 -10 -1 -13 8 -9 8 3 12 9 9 14 -7 12 -11 11 -17 -5z"/>
<path d="M3495 4070 c-3 -5 -2 -10 4 -10 5 0 13 5 16 10 3 6 2 10 -4 10 -5 0
-13 -4 -16 -10z"/>
<path d="M3527 4066 c-4 -10 4 -16 30 -21 19 -3 38 -4 41 -1 3 3 -3 6 -13 6
-10 0 -26 7 -35 15 -15 14 -18 14 -23 1z"/>
<path d="M3228 4063 c6 -2 18 -2 25 0 6 3 1 5 -13 5 -14 0 -19 -2 -12 -5z"/>
<path d="M3353 4045 c0 -7 8 -10 19 -7 10 2 18 6 18 7 0 1 -8 5 -18 7 -11 3
-19 0 -19 -7z"/>
<path d="M2252 4033 c-12 -2 -19 -9 -16 -15 4 -6 -2 -8 -17 -4 -20 6 -21 5 -7
-4 13 -8 25 -6 50 10 33 20 32 21 -10 13z"/>
<path d="M2410 4030 c0 -5 5 -10 10 -10 6 0 10 5 10 10 0 6 -4 10 -10 10 -5 0
-10 -4 -10 -10z"/>
<path d="M3625 4030 c-4 -6 3 -10 14 -10 25 0 27 6 6 13 -8 4 -17 2 -20 -3z"/>
<path d="M2318 4023 c7 -3 16 -2 19 1 4 3 -2 6 -13 5 -11 0 -14 -3 -6 -6z"/>
<path d="M2286 4012 c-10 -17 25 -23 61 -11 19 6 32 13 29 16 -3 3 -20 0 -37
-6 -24 -8 -34 -8 -40 0 -4 7 -9 8 -13 1z"/>
<path d="M3476 4011 c-3 -5 1 -12 10 -15 22 -8 25 -4 9 11 -8 7 -16 9 -19 4z"/>
<path d="M3670 4010 c0 -5 5 -10 11 -10 5 0 7 5 4 10 -3 6 -8 10 -11 10 -2 0
-4 -4 -4 -10z"/>
<path d="M3720 3991 c0 -5 7 -12 16 -15 14 -5 15 -4 4 9 -14 17 -20 19 -20 6z"/>
<path d="M2112 3983 c-13 -5 -7 -23 9 -23 6 0 7 4 4 10 -4 6 9 8 36 5 24 -3
41 -3 37 0 -8 8 -71 14 -86 8z"/>
<path d="M2244 3978 c9 -5 23 -5 32 0 12 6 7 9 -16 9 -23 0 -28 -3 -16 -9z"/>
<path d="M3554 3981 c3 -5 20 -14 38 -20 38 -13 26 0 -15 17 -16 7 -26 8 -23
3z"/>
<path d="M2065 3961 c-3 -5 0 -13 6 -17 7 -4 9 -3 5 4 -3 5 0 13 6 15 9 4 10
6 1 6 -6 1 -14 -3 -18 -8z"/>
<path d="M2205 3960 c-3 -5 -2 -10 4 -10 5 0 13 5 16 10 3 6 2 10 -4 10 -5 0
-13 -4 -16 -10z"/>
<path d="M2160 3956 c0 -2 7 -7 16 -10 8 -3 12 -2 9 4 -6 10 -25 14 -25 6z"/>
<path d="M2136 3938 c5 -7 -2 -9 -19 -4 -16 4 -29 1 -33 -6 -5 -7 -2 -9 9 -5
9 3 17 2 19 -2 2 -4 16 -2 32 4 26 11 27 12 7 18 -13 3 -19 1 -15 -5z"/>
<path d="M3640 3940 c8 -5 20 -10 25 -10 6 0 3 5 -5 10 -8 5 -19 10 -25 10 -5
0 -3 -5 5 -10z"/>
<path d="M3824 3938 c-4 -7 -3 -8 4 -4 7 4 12 2 12 -4 0 -6 5 -8 10 -5 6 3 10
2 10 -3 0 -5 7 -9 15 -9 22 0 19 5 -14 22 -22 11 -32 12 -37 3z"/>
<path d="M2005 3930 c-13 -5 -14 -9 -5 -9 8 0 24 4 35 9 13 5 14 9 5 9 -8 0
-24 -4 -35 -9z"/>
<path d="M1970 3916 c0 -2 8 -10 18 -17 15 -13 16 -12 3 4 -13 16 -21 21 -21
13z"/>
<path d="M1946 3885 c-11 -8 -15 -15 -9 -15 6 0 16 7 23 15 16 19 11 19 -14 0z"/>
<path d="M3898 3893 c7 -3 16 -2 19 1 4 3 -2 6 -13 5 -11 0 -14 -3 -6 -6z"/>
<path d="M1887 3865 c-16 -12 -16 -13 -1 -19 9 -4 19 -4 22 -1 3 3 -1 5 -9 5
-12 0 -12 2 1 10 8 5 12 11 10 14 -3 2 -13 -1 -23 -9z"/>
<path d="M1995 3869 c-9 -14 -2 -20 14 -10 8 6 9 11 3 15 -6 3 -14 1 -17 -5z"/>
<path d="M3955 3868 c5 -13 37 -41 73 -62 11 -7 12 -4 2 13 -6 12 -15 19 -19
16 -5 -2 -21 7 -35 22 -15 14 -24 20 -21 11z"/>
<path d="M1933 3835 c4 -8 2 -17 -3 -20 -6 -4 -10 -2 -10 4 0 14 -49 -7 -72
-30 -14 -14 -14 -18 -4 -22 18 -7 58 22 50 35 -5 7 0 9 13 6 11 -3 28 1 38 8
14 11 15 14 4 15 -8 0 -6 4 6 9 19 8 19 9 -4 9 -16 1 -22 -3 -18 -14z m-43
-40 c0 -2 -9 -9 -20 -15 -16 -9 -18 -8 -14 5 5 13 34 22 34 10z"/>
<path d="M1804 3812 c-22 -15 -56 -40 -75 -56 -28 -24 -30 -28 -10 -21 13 4
21 3 18 -2 -3 -5 4 -10 15 -10 19 -2 19 -1 3 11 -14 10 -15 15 -5 21 8 5 11 4
7 -2 -3 -5 0 -10 8 -10 10 0 11 5 4 19 -12 22 0 23 27 4 18 -14 18 -16 -16
-47 -19 -17 -26 -27 -15 -20 27 14 69 51 64 55 -2 1 -15 10 -29 19 -22 15 -16
23 14 18 14 -3 36 21 30 31 -4 6 2 7 16 3 15 -5 20 -4 16 4 -10 16 -26 12 -72
-17z m31 -2 c-3 -5 -12 -10 -18 -10 -7 0 -6 4 3 10 19 12 23 12 15 0z"/>
<path d="M4056 3788 c3 -5 10 -6 15 -3 13 9 11 12 -6 12 -8 0 -12 -4 -9 -9z"/>
<path d="M4120 3743 c19 -18 47 -45 62 -60 15 -15 30 -24 34 -20 4 4 2 7 -5 7
-7 0 -10 4 -7 8 5 9 -46 52 -61 52 -4 0 -19 10 -33 23 -14 12 -10 7 10 -10z"/>
<path d="M1678 3713 c-3 -12 -1 -26 5 -32 8 -8 8 -11 -1 -11 -12 0 -17 14 -12
35 2 11 -31 -18 -122 -104 -31 -30 -55 -58 -52 -63 3 -5 0 -15 -6 -23 -6 -8
-9 -18 -6 -24 4 -5 -1 -16 -9 -24 -17 -18 -19 -27 -6 -27 5 0 13 9 16 21 5 13
12 18 23 14 15 -6 32 10 32 30 0 6 -5 3 -10 -5 -9 -13 -10 -13 -10 0 0 13 -1
13 -10 0 -5 -8 -12 -11 -16 -7 -9 9 14 36 29 33 7 -1 17 -5 24 -9 12 -8 12 10
0 31 -12 17 3 15 25 -5 18 -16 18 -16 12 0 -4 13 -2 16 9 11 17 -6 32 12 17
21 -5 3 -10 11 -10 17 0 7 4 7 13 -1 18 -15 30 -2 15 17 -18 21 -18 40 0 54
13 11 15 10 9 -4 -3 -10 -1 -20 5 -24 7 -5 8 -2 3 6 -6 10 -4 12 8 7 11 -4 14
-2 10 9 -3 7 -10 14 -16 14 -6 0 -8 3 -4 6 3 3 19 -3 35 -15 25 -17 32 -18 41
-7 8 10 8 16 -2 25 -8 6 -17 9 -21 6 -3 -3 -2 0 3 7 8 8 15 8 28 -3 17 -13 17
-13 4 4 -8 10 -20 16 -27 13 -7 -3 -14 3 -16 12 -3 14 -5 13 -10 -5z m36 -54
c-3 -5 -10 -7 -15 -3 -5 3 -7 10 -3 15 3 5 10 7 15 3 5 -3 7 -10 3 -15z m-107
-26 c-4 -3 1 -16 10 -27 15 -17 15 -19 1 -8 -21 16 -35 -2 -18 -23 7 -8 9 -15
5 -15 -4 0 -14 8 -20 17 -12 17 -14 17 -34 -1 -15 -13 -18 -23 -11 -31 8 -9 4
-11 -16 -7 -27 5 -27 5 25 53 28 27 54 49 58 49 3 0 3 -3 0 -7z m-27 -63 c0
-5 -4 -10 -10 -10 -5 0 -10 5 -10 10 0 6 5 10 10 10 6 0 10 -4 10 -10z"/>
<path d="M4224 3648 c-4 -6 -3 -8 4 -4 6 3 22 -8 36 -27 14 -18 40 -43 58 -57
20 -14 10 0 -27 38 -33 34 -61 62 -62 62 -1 0 -5 -5 -9 -12z"/>
<path d="M1656 3622 c-3 -5 1 -9 9 -9 8 0 12 4 9 9 -3 4 -7 8 -9 8 -2 0 -6 -4
-9 -8z"/>
<path d="M1450 3485 c0 -9 -4 -14 -8 -11 -5 3 -16 -4 -25 -14 -10 -11 -12 -22
-6 -25 5 -4 7 -11 3 -16 -3 -6 -12 -5 -22 3 -12 9 -11 6 2 -10 11 -12 14 -22
8 -22 -6 0 -14 5 -17 10 -8 13 -25 3 -25 -13 0 -7 4 -6 10 3 5 8 10 13 11 10
6 -39 6 -60 -1 -60 -4 0 -11 8 -15 18 -6 16 -7 16 -16 -1 -6 -9 -16 -14 -22
-11 -7 4 -6 1 2 -7 11 -11 14 -12 18 -1 4 10 9 9 24 -4 10 -9 16 -20 14 -25
-3 -4 0 -11 6 -15 8 -4 9 -3 5 4 -4 7 -3 12 2 12 4 0 19 14 31 31 13 18 18 28
11 24 -9 -5 -10 -2 -5 14 5 16 2 21 -12 21 -14 0 -15 2 -4 9 7 5 11 13 7 19
-3 6 -3 18 1 28 6 17 7 17 13 0 5 -15 8 -14 18 8 7 16 8 28 2 31 -6 4 -10 -1
-10 -10z m-27 -115 c-6 -22 -18 -26 -29 -9 -3 6 0 15 7 20 22 14 28 11 22 -11z
m-13 -40 c0 -5 -4 -10 -10 -10 -5 0 -10 5 -10 10 0 6 5 10 10 10 6 0 10 -4 10
-10z"/>
<path d="M4390 3484 c0 -12 56 -74 66 -74 4 0 -5 15 -22 33 -16 17 -32 36 -36
42 -5 5 -8 5 -8 -1z"/>
<path d="M1484 3433 c-35 -48 -38 -59 -6 -23 28 31 38 50 29 50 -2 0 -12 -12
-23 -27z"/>
<path d="M2286 3415 c-3 -8 -3 -15 0 -15 3 0 12 7 20 15 13 13 13 15 1 15 -8
0 -17 -7 -21 -15z"/>
<path d="M2336 3408 c5 -7 2 -9 -8 -6 -13 5 -14 3 -4 -18 10 -22 11 -22 14 -4
2 11 8 18 13 15 5 -4 9 -2 9 3 0 6 -7 13 -16 16 -10 4 -13 2 -8 -6z"/>
<path d="M3319 3403 c-13 -16 -12 -17 4 -4 16 13 21 21 13 21 -2 0 -10 -8 -17
-17z"/>
<path d="M4472 3370 c12 -16 26 -30 30 -30 5 0 0 10 -12 22 -11 12 -20 25 -20
30 0 4 -5 8 -10 8 -6 0 -1 -13 12 -30z"/>
<path d="M2303 3353 c-1 -33 0 -35 8 -15 5 13 5 30 1 38 -5 9 -8 1 -9 -23z"/>
<path d="M2370 3381 c0 -5 12 -17 28 -26 l27 -18 -24 27 c-26 28 -31 31 -31
17z"/>
<path d="M2281 3364 c0 -11 3 -14 6 -6 3 7 2 16 -1 19 -3 4 -6 -2 -5 -13z"/>
<path d="M3369 3353 l-24 -28 28 24 c25 23 32 31 24 31 -2 0 -14 -12 -28 -27z"/>
<path d="M2350 3350 c0 -5 5 -10 11 -10 5 0 7 5 4 10 -3 6 -8 10 -11 10 -2 0
-4 -4 -4 -10z"/>
<path d="M2397 3330 c7 -7 25 -15 40 -16 24 -2 25 -1 10 7 -10 6 -21 8 -24 5
-4 -3 -13 0 -22 6 -13 10 -14 10 -4 -2z"/>
<path d="M3225 3331 c-10 -17 12 -21 25 -6 10 12 10 15 -3 15 -9 0 -18 -4 -22
-9z"/>
<path d="M3439 3323 c-13 -16 -12 -17 4 -4 16 13 21 21 13 21 -2 0 -10 -8 -17
-17z"/>
<path d="M1290 3288 l-22 -33 26 28 c23 25 26 26 26 9 0 -11 -7 -23 -16 -26
-9 -4 -14 -9 -11 -13 4 -3 14 0 23 8 15 12 18 12 22 0 3 -8 10 -1 18 19 8 18
12 36 9 39 -3 3 -8 -5 -12 -17 -6 -26 -21 -30 -19 -6 2 30 -22 26 -44 -8z"/>
<path d="M2366 3312 c-2 -4 0 -14 6 -22 8 -12 9 -11 4 4 -5 14 -2 17 9 12 9
-3 13 -2 10 4 -7 12 -22 13 -29 2z"/>
<path d="M3172 3280 c-22 -26 -28 -41 -21 -46 7 -4 9 -3 6 3 -4 6 0 16 8 23 8
7 15 9 15 5 0 -4 6 -2 14 5 8 6 12 19 9 27 -5 12 -3 14 7 8 9 -5 11 -4 6 3 -9
15 -6 17 -44 -28z"/>
<path d="M1370 3280 c0 -5 5 -10 11 -10 5 0 7 5 4 10 -3 6 -8 10 -11 10 -2 0
-4 -4 -4 -10z"/>
<path d="M2327 3272 c1 -8 3 -16 3 -18 0 -2 5 -4 11 -4 5 0 7 5 3 12 -5 8 -2
9 11 4 15 -5 16 -4 5 9 -10 12 -15 13 -20 4 -4 -6 -10 -7 -12 -3 -3 5 -3 3 -1
-4z"/>
<path d="M2485 3262 c0 -24 4 -28 28 -28 l27 0 -27 28 c-15 15 -27 28 -28 28
0 0 -1 -13 0 -28z m26 -9 c13 -16 12 -17 -3 -4 -10 7 -18 15 -18 17 0 8 8 3
21 -13z"/>
<path d="M4540 3271 c5 -11 15 -23 21 -27 6 -3 3 5 -6 20 -20 30 -30 35 -15 7z"/>
<path d="M2382 3260 c-7 -12 -8 -20 -2 -20 5 0 10 -5 10 -11 0 -5 -4 -8 -9 -4
-5 3 -13 0 -17 -6 -5 -8 -3 -9 6 -4 10 6 12 4 6 -10 -5 -15 -4 -16 8 -6 8 6
14 27 13 46 -1 19 -1 35 -2 35 0 0 -6 -9 -13 -20z"/>
<path d="M3267 3259 c-15 -11 -25 -25 -22 -30 10 -15 -44 -22 -62 -8 -14 12
-16 12 -11 -1 10 -32 54 -23 97 19 45 44 44 54 -2 20z"/>
<path d="M3362 3250 c-18 -17 -29 -30 -25 -30 4 0 -2 -7 -13 -15 -14 -11 -14
-13 -3 -9 14 4 87 85 77 84 -2 0 -18 -14 -36 -30z"/>
<path d="M3466 3252 l-19 -27 24 22 c12 12 21 24 18 27 -2 2 -13 -8 -23 -22z"/>
<path d="M1257 3244 c-4 -4 -7 -11 -7 -15 0 -9 27 -5 37 6 4 4 3 5 -4 2 -6 -4
-13 -2 -15 4 -2 5 -7 7 -11 3z"/>
<path d="M1344 3222 c-6 -4 -15 -18 -19 -31 -6 -19 -9 -21 -17 -10 -6 10 -7 7
-3 -10 5 -17 4 -22 -5 -16 -9 6 -11 4 -5 -5 4 -7 2 -16 -6 -21 -9 -6 -10 -9
-2 -9 6 0 25 25 41 55 17 30 29 55 29 55 -1 0 -7 -4 -13 -8z"/>
<path d="M1252 3179 c5 -16 15 -29 21 -29 7 0 7 4 -1 12 -7 7 -12 19 -12 28 0
13 2 13 10 0 5 -8 12 -11 16 -7 10 9 1 17 -24 22 -19 3 -20 1 -10 -26z"/>
<path d="M3097 3192 c-13 -14 -14 -24 -7 -47 l10 -30 -4 28 c-2 16 3 35 11 43
9 8 13 17 11 20 -3 2 -12 -4 -21 -14z"/>
<path d="M3407 3193 c-4 -3 -7 -11 -7 -17 0 -6 5 -5 12 2 6 6 9 14 7 17 -3 3
-9 2 -12 -2z"/>
<path d="M1227 3173 c4 -10 2 -14 -5 -9 -6 3 -13 3 -16 -2 -2 -4 6 -8 19 -8
20 0 22 3 14 18 -12 23 -21 24 -12 1z"/>
<path d="M2564 3168 c0 -10 1 -18 3 -18 1 0 7 8 12 18 7 13 6 19 -2 19 -7 0
-13 -9 -13 -19z"/>
<path d="M3191 3183 c-1 -12 16 -26 35 -29 7 -1 9 6 7 17 -4 15 -9 17 -18 9
-9 -8 -15 -7 -18 2 -4 9 -6 9 -6 1z"/>
<path d="M3285 3179 c-9 -14 -2 -20 14 -10 8 6 9 11 3 15 -6 3 -14 1 -17 -5z"/>
<path d="M3120 3171 c0 -5 7 -12 16 -15 14 -5 15 -4 4 9 -14 17 -20 19 -20 6z"/>
<path d="M3370 3165 c-7 -8 -9 -15 -6 -15 4 0 1 -6 -6 -14 -7 -8 -16 -12 -19
-10 -3 2 -16 -8 -29 -23 -16 -19 -18 -24 -6 -20 9 4 16 1 16 -6 0 -7 7 -3 15
8 8 11 23 31 32 43 15 21 26 52 18 52 -1 0 -8 -7 -15 -15z m-39 -68 c-10 -9
-11 -8 -5 6 3 10 9 15 12 12 3 -3 0 -11 -7 -18z"/>
<path d="M2420 3142 c0 -17 32 -52 42 -46 7 5 9 1 5 -9 -7 -19 18 -44 28 -27
4 6 1 9 -6 8 -7 -2 -13 6 -14 17 0 11 -6 19 -13 17 -7 -1 -17 9 -22 23 -9 24
-20 33 -20 17z"/>
<path d="M2645 3105 c3 -34 10 -39 26 -18 12 15 12 16 -5 10 -14 -5 -17 -3
-13 8 4 8 2 17 -3 20 -4 3 -7 -6 -5 -20z"/>
<path d="M1168 3077 c-13 -26 -13 -34 -3 -34 7 0 11 7 8 14 -6 16 17 14 30 -2
5 -6 7 -4 4 5 -2 8 -10 14 -17 12 -7 -2 -9 5 -5 18 10 31 1 24 -17 -13z"/>
<path d="M3082 3090 c0 -14 2 -19 5 -12 2 6 2 18 0 25 -3 6 -5 1 -5 -13z"/>
<path d="M2682 3064 c2 -9 12 -22 23 -28 11 -6 23 -15 27 -21 4 -5 10 -6 14
-3 8 8 -20 38 -35 38 -6 0 -11 7 -11 15 0 8 -5 15 -11 15 -6 0 -9 -7 -7 -16z"/>
<path d="M3110 3071 c0 -5 -8 -12 -17 -14 -14 -4 -12 -5 5 -6 13 -1 22 5 22
14 0 8 -2 15 -5 15 -3 0 -5 -4 -5 -9z"/>
<path d="M1225 3060 c3 -5 8 -10 11 -10 2 0 4 5 4 10 0 6 -5 10 -11 10 -5 0
-7 -4 -4 -10z"/>
<path d="M2509 3054 c-6 -8 -9 -17 -6 -21 4 -3 9 2 13 11 3 9 11 16 16 16 6 0
8 -7 4 -15 -3 -8 0 -15 7 -15 7 0 13 8 13 18 0 22 -30 26 -47 6z"/>
<path d="M3287 3056 c-4 -10 -18 -13 -49 -10 l-43 3 40 -8 c33 -8 43 -6 60 10
11 10 14 19 8 19 -6 0 -13 -6 -16 -14z"/>
<path d="M3148 3053 c6 -2 18 -2 25 0 6 3 1 5 -13 5 -14 0 -19 -2 -12 -5z"/>
<path d="M4661 3045 c0 -5 6 -21 14 -35 8 -14 14 -20 14 -15 0 6 -6 21 -14 35
-8 14 -14 21 -14 15z"/>
<path d="M3059 3023 c-13 -16 -12 -17 4 -4 16 13 21 21 13 21 -2 0 -10 -8 -17
-17z"/>
<path d="M3108 3033 c7 -3 16 -2 19 1 4 3 -2 6 -13 5 -11 0 -14 -3 -6 -6z"/>
<path d="M1142 3000 c0 -19 3 -43 5 -53 4 -16 7 -15 24 8 12 14 17 30 13 37
-6 9 -3 9 9 -1 20 -16 23 -5 4 12 -21 20 -39 20 -28 0 6 -13 5 -24 -6 -38 -15
-19 -15 -19 -10 5 3 14 1 34 -3 45 -7 16 -9 13 -8 -15z"/>
<path d="M3160 3020 c8 -5 22 -10 30 -10 13 0 13 1 0 10 -8 5 -22 10 -30 10
-13 0 -13 -1 0 -10z"/>
<path d="M3218 3023 c6 -2 18 -2 25 0 6 3 1 5 -13 5 -14 0 -19 -2 -12 -5z"/>
<path d="M2542 2978 c35 -43 64 -62 56 -37 -3 8 -11 14 -18 14 -7 0 -15 5 -17
11 -6 18 26 12 44 -8 12 -14 14 -21 5 -30 -14 -14 3 -38 27 -37 10 0 8 3 -7
10 -13 5 -20 14 -16 20 5 8 9 8 14 -1 5 -8 7 -3 7 13 -1 14 -6 23 -10 20 -5
-3 -7 3 -5 13 2 15 -4 18 -37 19 -27 1 -39 5 -37 14 1 7 -2 10 -8 6 -5 -3 -10
-1 -10 4 0 6 -5 11 -11 11 -7 0 4 -19 23 -42z"/>
<path d="M3072 3004 c-6 -7 -20 -11 -30 -8 -14 5 -14 4 -2 -4 8 -6 18 -8 24
-5 5 3 6 1 2 -5 -4 -6 -14 -8 -22 -5 -13 5 -15 1 -9 -15 4 -14 2 -22 -5 -22
-6 0 -9 4 -6 8 2 4 0 14 -6 22 -8 13 -9 12 -5 -1 6 -19 -10 -39 -27 -33 -7 3
-23 -7 -36 -21 l-23 -25 24 -1 c21 0 22 -1 5 -8 -16 -6 -17 -9 -4 -13 8 -4 22
2 31 13 10 11 12 19 5 19 -6 0 -3 9 7 20 10 11 22 17 27 14 9 -6 58 41 58 56
0 4 5 10 12 12 7 3 8 7 3 10 -6 3 -16 0 -23 -8z m-91 -83 c-7 -5 -11 -14 -7
-20 5 -7 1 -9 -9 -5 -12 5 -13 9 -4 20 6 8 17 14 23 14 6 0 5 -4 -3 -9z"/>
<path d="M3118 3013 c7 -3 16 -2 19 1 4 3 -2 6 -13 5 -11 0 -14 -3 -6 -6z"/>
<path d="M1230 2990 c-9 -6 -10 -10 -3 -10 6 0 15 5 18 10 8 12 4 12 -15 0z"/>
<path d="M2760 2990 c0 -5 5 -10 10 -10 6 0 10 5 10 10 0 6 -4 10 -10 10 -5 0
-10 -4 -10 -10z"/>
<path d="M2789 2949 c18 -17 25 -19 34 -9 9 9 9 11 1 7 -7 -4 -17 0 -24 8 -7
8 -17 15 -23 15 -6 0 -1 -10 12 -21z"/>
<path d="M4696 2957 c3 -10 9 -15 12 -12 3 3 0 11 -7 18 -10 9 -11 8 -5 -6z"/>
<path d="M1106 2944 c-3 -9 -4 -20 0 -25 3 -5 1 -9 -5 -9 -6 0 -8 -7 -5 -15 4
-8 10 -15 15 -15 4 0 5 7 2 17 -5 12 -3 14 8 8 11 -6 12 -5 2 6 -17 18 -16 32
1 26 10 -4 13 -1 9 9 -7 19 -19 18 -27 -2z"/>
<path d="M1183 2948 c-20 -26 -26 -41 -15 -34 12 7 36 46 29 46 -3 0 -9 -6
-14 -12z"/>
<path d="M1215 2950 c3 -5 8 -10 11 -10 2 0 4 5 4 10 0 6 -5 10 -11 10 -5 0
-7 -4 -4 -10z"/>
<path d="M2831 2916 c-15 -18 0 -29 26 -19 16 6 16 5 5 -10 -8 -9 -21 -13 -30
-10 -9 3 -15 4 -12 2 3 -2 18 -15 34 -29 24 -20 28 -21 23 -7 -5 13 -3 17 5
14 7 -2 12 -13 10 -23 -2 -15 -1 -16 7 -4 5 8 7 18 4 24 -4 5 1 7 12 2 14 -5
12 -1 -6 16 -59 56 -65 60 -78 44z m19 -6 c0 -5 -5 -10 -11 -10 -5 0 -7 5 -4
10 3 6 8 10 11 10 2 0 4 -4 4 -10z m43 -33 c3 -8 -3 -13 -14 -13 -22 0 -25 12
-6 19 6 3 13 6 13 6 1 1 4 -5 7 -12z"/>
<path d="M1145 2901 c5 -16 4 -21 -4 -17 -7 5 -8 1 -4 -10 4 -12 3 -15 -5 -10
-8 5 -10 1 -5 -10 4 -11 8 -13 11 -6 2 7 9 9 14 6 7 -5 8 -2 3 6 -4 7 -3 15 3
19 7 4 5 13 -5 26 -15 19 -15 19 -8 -4z"/>
<path d="M2695 2901 l-20 -8 20 -6 c14 -4 12 -5 -7 -3 -16 2 -25 -1 -22 -8 2
-6 23 -12 47 -12 26 -1 34 1 21 5 -13 3 -20 13 -18 24 1 9 2 17 1 16 -1 0 -11
-4 -22 -8z"/>
<path d="M1190 2880 c0 -11 2 -20 4 -20 2 0 6 9 9 20 3 11 1 20 -4 20 -5 0 -9
-9 -9 -20z"/>
<path d="M2758 2893 c7 -3 16 -2 19 1 4 3 -2 6 -13 5 -11 0 -14 -3 -6 -6z"/>
<path d="M1086 2865 c4 -23 3 -26 -5 -15 -9 13 -11 13 -11 -2 0 -10 5 -18 10
-18 17 0 23 27 11 47 -9 15 -10 13 -5 -12z"/>
<path d="M2915 2820 c-17 -19 -17 -20 6 -39 21 -18 26 -18 46 -5 13 8 24 10
28 5 3 -6 -3 -15 -12 -21 -16 -10 -16 -10 3 -5 24 6 42 -21 24 -39 -7 -7 -10
-4 -11 10 0 11 -3 14 -6 6 -4 -11 -8 -11 -22 0 -9 7 -5 2 9 -12 15 -14 66 -70
115 -125 109 -124 118 -133 72 -69 -42 58 -43 61 -23 83 13 14 12 19 -6 41
-11 14 -17 19 -13 13 3 -7 1 -13 -4 -13 -6 0 -11 -4 -11 -10 0 -5 8 -7 18 -3
16 6 16 5 1 -13 -9 -10 -14 -26 -12 -34 3 -8 -9 1 -25 20 -17 19 -31 38 -32
43 0 12 18 8 23 -5 6 -17 17 -6 21 19 5 24 -47 68 -66 57 -8 -5 -9 -1 -4 12 4
10 4 15 0 11 -4 -4 -15 6 -25 22 -9 15 -30 38 -47 49 -29 21 -30 21 -47 2z
m57 -34 c-3 -5 -12 0 -20 10 -13 18 -14 18 -7 -6 7 -23 6 -24 -9 -9 -10 9 -14
23 -10 32 5 15 8 15 29 -1 13 -9 20 -21 17 -26z m89 -75 c4 -1 14 -12 22 -25
15 -23 15 -24 -9 -22 -13 0 -22 6 -20 12 2 6 0 17 -6 25 -8 11 -9 11 -5 -3 8
-24 -4 -30 -19 -10 -15 21 -10 31 14 27 9 -2 20 -4 23 -4z m89 -85 c0 -2 -8
-10 -17 -17 -16 -13 -17 -12 -4 4 13 16 21 21 21 13z"/>
<path d="M1046 2759 c-10 -33 -15 -63 -12 -66 3 -3 8 8 11 23 4 16 11 44 17
62 5 18 8 35 5 38 -2 2 -12 -23 -21 -57z"/>
<path d="M2840 2801 c0 -6 5 -13 11 -16 6 -4 8 -14 4 -22 -4 -13 -3 -14 9 -4
13 11 13 15 -2 32 -19 21 -22 23 -22 10z"/>
<path d="M1110 2790 c0 -5 5 -10 10 -10 6 0 10 5 10 10 0 6 -4 10 -10 10 -5 0
-10 -4 -10 -10z"/>
<path d="M2823 2782 c0 -12 5 -22 9 -22 11 0 10 12 -2 30 -7 12 -9 10 -7 -8z"/>
<path d="M2785 2760 c-17 -19 -17 -20 9 -30 29 -11 27 -33 -2 -23 -14 5 -15 3
-5 -7 10 -11 16 -11 31 3 10 10 19 24 19 32 0 8 -3 13 -5 10 -8 -8 -32 16 -26
26 9 16 -2 10 -21 -11z m30 -20 c17 -19 17 -19 -8 -7 -14 6 -23 15 -21 19 7
11 9 10 29 -12z"/>
<path d="M1090 2749 c0 -5 5 -7 10 -4 6 3 10 8 10 11 0 2 -4 4 -10 4 -5 0 -10
-5 -10 -11z"/>
<path d="M4761 2745 c1 -19 18 -51 18 -35 0 8 -4 22 -9 30 -5 8 -9 11 -9 5z"/>
<path d="M1072 2710 c0 -14 2 -19 5 -12 2 6 2 18 0 25 -3 6 -5 1 -5 -13z"/>
<path d="M1094 2695 c-3 -20 -4 -39 0 -42 3 -4 6 4 6 16 0 12 5 31 10 42 7 12
7 19 1 19 -6 0 -13 -16 -17 -35z"/>
<path d="M2747 2724 c-3 -4 -2 -14 3 -24 5 -10 6 -20 2 -24 -3 -4 2 -4 12 0
15 6 17 4 11 -6 -6 -9 -4 -11 4 -5 9 5 7 13 -9 27 -18 16 -19 22 -8 29 7 5 8
9 2 9 -6 0 -14 -3 -17 -6z"/>
<path d="M2700 2684 c-13 -13 -19 -24 -13 -24 7 0 15 5 19 11 5 8 9 8 14 -1 5
-9 9 -8 13 3 11 28 -8 34 -33 11z"/>
<path d="M1051 2686 c-1 -12 -6 -16 -15 -13 -10 4 -13 1 -9 -9 5 -14 7 -14 21
-1 8 8 12 21 9 29 -4 8 -6 7 -6 -6z"/>
<path d="M1071 2654 c0 -11 3 -14 6 -6 3 7 2 16 -1 19 -3 4 -6 -2 -5 -13z"/>
<path d="M2739 2643 c-13 -16 -12 -17 4 -4 16 13 21 21 13 21 -2 0 -10 -8 -17
-17z"/>
<path d="M2621 2610 c-13 -11 -18 -20 -13 -20 6 0 14 5 17 10 4 6 10 8 14 6 4
-3 8 1 8 9 0 8 -1 15 -1 15 -1 -1 -12 -10 -25 -20z"/>
<path d="M2660 2619 c0 -5 5 -7 10 -4 6 3 10 8 10 11 0 2 -4 4 -10 4 -5 0 -10
-5 -10 -11z"/>
<path d="M3170 2615 c0 -5 5 -17 10 -25 6 -9 10 -10 10 -3 0 7 12 1 26 -14 30
-30 24 -44 -8 -17 l-23 18 21 -22 c13 -15 26 -20 38 -16 15 6 13 11 -16 37
-18 17 -35 29 -37 28 -2 -2 -8 3 -12 11 -5 7 -9 9 -9 3z"/>
<path d="M2683 2603 c-7 -2 -13 -9 -13 -14 0 -6 5 -7 12 -3 8 5 9 2 5 -10 -4
-11 -3 -15 4 -11 6 4 8 13 5 20 -3 8 0 16 7 19 7 2 8 4 2 4 -5 0 -16 -2 -22
-5z"/>
<path d="M1067 2579 c4 -13 8 -18 11 -10 2 7 -1 18 -6 23 -8 8 -9 4 -5 -13z"/>
<path d="M1116 2568 c-3 -13 -5 -34 -5 -48 1 -15 5 -7 10 19 9 47 6 68 -5 29z"/>
<path d="M2644 2573 c6 -19 4 -22 -11 -16 -17 6 -17 5 1 -16 23 -26 41 -9 24
23 -16 31 -21 34 -14 9z"/>
<path d="M2575 2570 c-3 -5 -2 -10 4 -10 5 0 13 5 16 10 3 6 2 10 -4 10 -5 0
-13 -4 -16 -10z"/>
<path d="M3160 2560 c0 -5 5 -10 11 -10 5 0 7 5 4 10 -3 6 -8 10 -11 10 -2 0
-4 -4 -4 -10z"/>
<path d="M1022 2535 c0 -16 2 -22 5 -12 2 9 2 23 0 30 -3 6 -5 -1 -5 -18z"/>
<path d="M2541 2546 c-15 -18 5 -34 22 -17 8 8 8 11 -2 11 -7 0 -9 5 -6 10 9
15 -1 12 -14 -4z"/>
<path d="M3190 2531 c0 -10 19 -25 25 -20 1 2 -3 10 -11 17 -8 7 -14 8 -14 3z"/>
<path d="M4711 2524 c0 -11 3 -14 6 -6 3 7 2 16 -1 19 -3 4 -6 -2 -5 -13z"/>
<path d="M1001 2530 c-1 -3 -4 -18 -6 -34 -3 -20 -1 -26 6 -19 6 6 9 21 6 34
-2 13 -5 22 -6 19z"/>
<path d="M3291 2511 c24 -20 24 -20 4 -36 -19 -16 -19 -16 3 -5 31 15 41 4 16
-16 -18 -14 -18 -15 4 -4 12 6 22 14 22 18 0 11 -54 62 -64 62 -5 0 2 -9 15
-19z"/>
<path d="M1046 2507 c3 -10 9 -15 12 -12 3 3 0 11 -7 18 -10 9 -11 8 -5 -6z"/>
<path d="M2605 2509 c-4 -6 -14 -8 -22 -5 -8 4 -11 1 -8 -5 4 -6 14 -8 22 -5
11 5 13 2 9 -9 -3 -10 -2 -13 5 -10 6 4 8 14 5 22 -5 11 -2 13 9 9 9 -3 13 -2
10 4 -8 13 -22 13 -30 -1z"/>
<path d="M2496 2495 c-3 -8 -1 -15 4 -15 6 0 10 7 10 15 0 8 -2 15 -4 15 -2 0
-6 -7 -10 -15z"/>
<path d="M3232 2498 c2 -6 10 -14 16 -16 7 -2 10 2 6 12 -7 18 -28 22 -22 4z"/>
<path d="M2534 2489 c-3 -6 -1 -16 5 -22 8 -8 11 -5 11 11 0 24 -5 28 -16 11z"/>
<path d="M1101 2474 c0 -11 3 -14 6 -6 3 7 2 16 -1 19 -3 4 -6 -2 -5 -13z"/>
<path d="M2570 2470 c6 -11 13 -20 16 -20 2 0 0 9 -6 20 -6 11 -13 20 -16 20
-2 0 0 -9 6 -20z"/>
<path d="M1052 2455 c0 -16 2 -22 5 -12 2 9 2 23 0 30 -3 6 -5 -1 -5 -18z"/>
<path d="M2465 2470 c-4 -6 -10 -8 -15 -5 -5 3 -11 1 -14 -4 -12 -19 12 -20
29 -1 10 11 15 20 12 20 -3 0 -9 -5 -12 -10z"/>
<path d="M3210 2473 c0 -6 12 -23 27 -39 15 -16 28 -32 29 -36 1 -5 2 -12 3
-17 0 -5 11 -11 22 -14 14 -4 20 -11 16 -20 -7 -19 11 -37 29 -30 10 3 12 0 8
-10 -3 -8 -2 -17 3 -20 4 -3 8 13 9 34 0 22 -2 35 -6 29 -4 -7 -17 -1 -34 15
-15 14 -31 25 -36 25 -5 0 -7 7 -4 15 4 8 2 15 -4 15 -5 0 -8 10 -7 23 1 12 0
14 -2 5 -5 -21 -23 -24 -23 -4 0 7 -7 19 -15 26 -8 7 -15 8 -15 3z m130 -137
c0 -11 -19 -15 -25 -6 -3 5 1 10 9 10 9 0 16 -2 16 -4z"/>
<path d="M3359 2463 c0 -4 -2 -16 -4 -25 -2 -10 1 -21 6 -24 5 -3 8 0 7 7 -2
6 3 14 11 17 9 3 11 0 6 -8 -5 -9 -4 -11 4 -6 6 4 14 0 17 -8 3 -9 13 -16 21
-16 8 0 12 -4 9 -9 -8 -12 21 -34 34 -26 5 3 10 1 10 -4 0 -6 5 -11 10 -11 21
0 8 17 -32 43 -24 15 -55 38 -70 52 -16 14 -28 22 -29 18z m106 -91 c-3 -3
-11 0 -18 7 -9 10 -8 11 6 5 10 -3 15 -9 12 -12z"/>
<path d="M2500 2450 c0 -5 5 -10 10 -10 6 0 10 5 10 10 0 6 -4 10 -10 10 -5 0
-10 -4 -10 -10z"/>
<path d="M997 2429 c4 -13 8 -18 11 -10 2 7 -1 18 -6 23 -8 8 -9 4 -5 -13z"/>
<path d="M2548 2439 c-10 -27 6 -40 21 -18 7 12 8 18 3 15 -6 -3 -12 -1 -14 6
-3 8 -6 7 -10 -3z"/>
<path d="M2383 2418 c-21 -20 -21 -22 -5 -34 15 -11 15 -13 2 -14 -9 0 -21 5
-27 11 -7 7 -12 6 -17 -6 -4 -11 -2 -15 6 -12 7 2 23 1 35 -4 15 -6 21 -4 19
6 -1 8 -5 18 -9 21 -12 12 -8 26 6 18 6 -4 9 -4 5 1 -4 4 -3 14 3 22 18 21 6
15 -18 -9z"/>
<path d="M2495 2420 c-3 -5 -3 -15 1 -21 3 -6 1 -15 -6 -19 -7 -5 -2 -7 14 -7
26 0 26 0 10 18 -10 11 -14 22 -11 26 4 4 14 -2 22 -13 8 -10 15 -14 15 -8 0
11 -20 34 -31 34 -4 0 -11 -4 -14 -10z"/>
<path d="M1101 2415 c-1 -5 -3 -48 -6 -95 -4 -83 -4 -84 6 -25 7 48 8 158 0
120z"/>
<path d="M3343 2383 c9 -9 20 -13 24 -9 4 4 1 11 -7 16 -25 16 -35 11 -17 -7z"/>
<path d="M4731 2384 c0 -11 3 -14 6 -6 3 7 2 16 -1 19 -3 4 -6 -2 -5 -13z"/>
<path d="M981 2374 c0 -10 5 -28 10 -39 7 -16 8 -13 5 13 -5 37 -16 57 -15 26z"/>
<path d="M3384 2365 c-18 -14 -18 -14 4 -8 12 3 22 9 22 14 0 12 -3 11 -26 -6z"/>
<path d="M2500 2351 c0 -7 -4 -9 -10 -6 -6 4 -7 -1 -3 -11 6 -15 7 -15 15 1 6
9 7 19 4 22 -3 4 -6 1 -6 -6z"/>
<path d="M2406 2333 c-6 -14 -5 -15 5 -6 7 7 10 15 7 18 -3 3 -9 -2 -12 -12z"/>
<path d="M4823 2310 c0 -25 2 -35 4 -22 2 12 2 32 0 45 -2 12 -4 2 -4 -23z"/>
<path d="M2430 2320 c-9 -6 -10 -10 -3 -10 6 0 15 5 18 10 8 12 4 12 -15 0z"/>
<path d="M2457 2303 c-4 -3 -7 -11 -7 -17 0 -6 5 -5 12 2 6 6 9 14 7 17 -3 3
-9 2 -12 -2z"/>
<path d="M982 2270 c0 -19 2 -27 5 -17 2 9 2 25 0 35 -3 9 -5 1 -5 -18z"/>
<path d="M1017 2248 c8 -70 13 -74 13 -10 0 28 -4 53 -10 57 -5 3 -7 -15 -3
-47z"/>
<path d="M1042 2275 c0 -16 2 -22 5 -12 2 9 2 23 0 30 -3 6 -5 -1 -5 -18z"/>
<path d="M2300 2259 c0 -22 43 -43 70 -34 18 6 20 9 9 15 -8 5 -25 10 -39 12
-14 1 -28 8 -32 13 -5 6 -8 3 -8 -6z m56 -27 c-10 -2 -22 0 -28 6 -6 6 0 7 19
4 21 -5 23 -7 9 -10z"/>
<path d="M2393 2258 c-15 -7 -14 -8 5 -4 28 5 28 -8 0 -28 -12 -9 -18 -16 -12
-16 6 0 22 13 37 28 24 25 25 28 7 28 -10 0 -27 -4 -37 -8z"/>
<path d="M3487 2249 c6 -23 9 -24 16 -5 3 8 0 17 -7 19 -10 4 -12 -1 -9 -14z"/>
<path d="M3385 2249 c-4 -6 -4 -13 -1 -16 3 -4 6 -1 6 6 0 7 10 9 28 6 22 -4
24 -4 7 4 -27 13 -33 13 -40 0z"/>
<path d="M4733 2210 c0 -25 2 -35 4 -22 2 12 2 32 0 45 -2 12 -4 2 -4 -23z"/>
<path d="M1102 2210 c0 -14 2 -19 5 -12 2 6 2 18 0 25 -3 6 -5 1 -5 -13z"/>
<path d="M1001 2132 c0 -13 -4 -21 -8 -19 -5 3 -9 -7 -10 -21 l-1 -27 14 25
c13 25 13 25 15 -15 1 -22 0 -44 -1 -50 -1 -5 2 -7 6 -2 4 4 8 29 8 56 1 27
-2 44 -6 38 -3 -5 -8 1 -11 14 -4 24 -4 24 -6 1z"/>
<path d="M1052 2070 c0 -14 2 -19 5 -12 2 6 2 18 0 25 -3 6 -5 1 -5 -13z"/>
<path d="M4726 2073 c-6 -14 -5 -15 5 -6 7 7 10 15 7 18 -3 3 -9 -2 -12 -12z"/>
<path d="M1112 2045 c0 -16 2 -22 5 -12 2 9 2 23 0 30 -3 6 -5 -1 -5 -18z"/>
<path d="M4721 2034 c0 -11 3 -14 6 -6 3 7 2 16 -1 19 -3 4 -6 -2 -5 -13z"/>
<path d="M1061 2004 c0 -11 3 -14 6 -6 3 7 2 16 -1 19 -3 4 -6 -2 -5 -13z"/>
<path d="M991 2005 c1 -19 18 -51 18 -35 0 8 -4 22 -9 30 -5 8 -9 11 -9 5z"/>
<path d="M1030 2005 c0 -5 5 -17 10 -25 5 -8 10 -10 10 -5 0 6 -5 17 -10 25
-5 8 -10 11 -10 5z"/>
<path d="M3150 2002 c0 -7 -13 -12 -29 -12 -27 0 -90 -39 -65 -40 6 0 17 7 24
15 7 8 25 15 41 15 27 0 47 15 35 27 -3 4 -6 1 -6 -5z"/>
<path d="M3190 2000 c0 -5 5 -10 11 -10 5 0 7 5 4 10 -3 6 -8 10 -11 10 -2 0
-4 -4 -4 -10z"/>
<path d="M3233 2003 c9 -2 15 -9 12 -14 -4 -5 5 -9 19 -9 28 0 33 -9 14 -28
-8 -8 -8 -12 -1 -12 9 0 23 21 23 35 0 6 -63 35 -74 34 -6 -1 -3 -3 7 -6z"/>
<path d="M3482 1994 c-37 -15 -41 -24 -11 -24 11 0 17 5 14 10 -3 6 1 10 10
10 9 0 13 -4 10 -10 -3 -6 4 -10 17 -9 13 0 17 3 9 6 -10 4 -10 7 -1 13 23 14
-15 18 -48 4z"/>
<path d="M2123 1986 c-7 -8 -8 -18 -2 -27 5 -9 9 -10 9 -2 0 6 7 19 16 27 11
12 12 16 2 16 -7 -1 -18 -7 -25 -14z"/>
<path d="M2205 1990 c3 -5 11 -10 16 -10 6 0 7 5 4 10 -3 6 -11 10 -16 10 -6
0 -7 -4 -4 -10z"/>
<path d="M2429 1998 c-1 -2 -3 -12 -4 -23 -1 -15 4 -20 20 -20 13 0 21 5 18
12 -3 6 -11 9 -19 6 -8 -3 -14 0 -14 5 0 6 8 13 18 15 16 4 16 5 0 6 -10 0
-19 0 -19 -1z"/>
<path d="M2513 1993 c13 -3 16 -10 11 -26 -6 -20 -6 -20 10 -4 21 20 13 37
-17 36 -18 -1 -18 -2 -4 -6z"/>
<path d="M2666 1992 c-3 -5 8 -6 25 -4 16 2 29 6 29 8 0 8 -49 4 -54 -4z"/>
<path d="M2910 1991 l25 -8 -25 -4 c-23 -4 -23 -5 6 -10 25 -4 31 -2 29 10 -1
10 -13 17 -31 18 -28 2 -28 2 -4 -6z"/>
<path d="M4710 1976 c0 -31 6 -34 13 -6 3 11 1 23 -4 26 -5 3 -9 -6 -9 -20z"/>
<path d="M3632 1969 c-7 -19 -9 -19 -21 -5 -8 9 -21 16 -30 15 -13 0 -14 -1
-1 -6 31 -12 42 -25 28 -35 -10 -7 -10 -9 2 -6 8 3 19 14 25 26 5 12 16 20 23
17 7 -3 10 0 7 5 -10 16 -25 11 -33 -11z"/>
<path d="M2147 1965 c-4 -8 3 -10 19 -7 29 5 30 8 5 15 -11 3 -22 -1 -24 -8z"/>
<path d="M2228 1972 c-10 -2 -18 -7 -18 -12 0 -5 7 -7 16 -3 9 3 20 0 25 -8 5
-8 9 -9 9 -4 0 19 -15 31 -32 27z"/>
<path d="M2478 1973 c7 -3 16 -2 19 1 4 3 -2 6 -13 5 -11 0 -14 -3 -6 -6z"/>
<path d="M2670 1964 l-25 -15 25 7 c14 3 29 10 35 15 15 14 -7 10 -35 -7z"/>
<path d="M1056 1955 c-3 -9 -5 -26 -5 -38 1 -17 3 -15 9 8 l8 30 1 -35 c1 -19
5 -42 10 -49 11 -18 2 66 -9 88 -6 10 -8 10 -14 -4z"/>
<path d="M1126 1945 c8 -37 14 -45 14 -19 0 10 -5 26 -10 34 -8 11 -9 7 -4
-15z"/>
<path d="M3113 1963 c9 -2 23 -2 30 0 6 3 -1 5 -18 5 -16 0 -22 -2 -12 -5z"/>
<path d="M2493 1915 c0 -27 2 -38 4 -22 2 15 2 37 0 50 -2 12 -4 0 -4 -28z"/>
<path d="M2910 1949 c0 -5 4 -8 9 -4 5 3 12 1 15 -4 4 -5 -2 -12 -11 -14 -14
-4 -13 -5 5 -6 25 -1 30 24 6 33 -21 8 -24 8 -24 -5z"/>
<path d="M3214 1946 c11 -9 27 -16 35 -15 14 0 14 1 1 6 -8 3 -24 10 -35 15
-20 9 -20 9 -1 -6z"/>
<path d="M1031 1934 c0 -11 3 -14 6 -6 3 7 2 16 -1 19 -3 4 -6 -2 -5 -13z"/>
<path d="M3140 1928 c-18 -15 -21 -21 -11 -31 10 -9 12 -9 9 2 -2 8 7 20 20
26 30 16 35 22 19 22 -8 0 -24 -9 -37 -19z"/>
<path d="M3450 1946 c0 -2 7 -9 15 -16 13 -11 14 -10 9 4 -5 14 -24 23 -24 12z"/>
<path d="M2753 1913 c0 -15 -2 -35 -5 -43 -2 -8 -3 -12 -1 -7 3 4 10 4 15 1 7
-4 8 -2 4 4 -4 6 -2 20 3 30 8 16 20 19 63 16 l53 -3 -50 8 c-27 5 -54 6 -59
3 -4 -2 -12 1 -16 8 -4 7 -7 0 -7 -17z"/>
<path d="M3400 1919 c-7 -11 -9 -23 -6 -26 3 -3 9 3 13 13 3 10 11 22 17 26 8
5 7 8 -1 8 -7 0 -17 -9 -23 -21z"/>
<path d="M2391 1923 c-1 -6 -4 -20 -7 -30 -5 -17 -5 -17 6 0 6 10 9 23 6 30
-3 9 -5 9 -5 0z"/>
<path d="M3499 1913 c-13 -16 -12 -17 4 -4 16 13 21 21 13 21 -2 0 -10 -8 -17
-17z"/>
<path d="M3448 1893 c5 -21 7 -23 10 -9 2 10 0 22 -6 28 -6 6 -7 0 -4 -19z"/>
<path d="M4705 1909 c-4 -6 -5 -12 -2 -15 2 -3 7 2 10 11 7 17 1 20 -8 4z"/>
<path d="M3420 1900 c0 -5 5 -10 11 -10 5 0 7 5 4 10 -3 6 -8 10 -11 10 -2 0
-4 -4 -4 -10z"/>
<path d="M2266 1883 c-4 -9 0 -23 9 -32 9 -9 15 -11 15 -4 0 7 -4 14 -10 18
-5 3 -7 12 -3 20 3 8 3 15 0 15 -3 0 -8 -8 -11 -17z"/>
<path d="M3471 1884 c0 -11 3 -14 6 -6 3 7 2 16 -1 19 -3 4 -6 -2 -5 -13z"/>
<path d="M1037 1860 c3 -11 7 -20 9 -20 2 0 4 9 4 20 0 11 -4 20 -9 20 -5 0
-7 -9 -4 -20z"/>
<path d="M3130 1872 c0 -6 -8 -9 -17 -6 -15 5 -16 4 -3 -5 8 -5 15 -18 15 -28
0 -13 7 -17 23 -16 13 2 21 -1 17 -7 -3 -6 -2 -10 4 -10 5 0 12 4 15 9 3 5 16
7 29 4 18 -4 17 -2 -6 11 -21 11 -34 13 -47 6 -29 -15 -35 -12 -16 9 15 16 15
19 1 31 -10 8 -15 9 -15 2z"/>
<path d="M3404 1850 c1 -16 9 -38 19 -47 17 -17 18 -17 11 0 -3 9 -10 17 -15
17 -5 0 -9 5 -9 11 0 6 6 9 13 6 7 -3 13 3 13 13 0 11 -5 16 -15 12 -9 -3 -12
-1 -7 6 4 7 3 12 -2 12 -5 0 -9 -13 -8 -30z"/>
<path d="M4696 1867 c3 -10 9 -15 12 -12 3 3 0 11 -7 18 -10 9 -11 8 -5 -6z"/>
<path d="M1062 1840 c0 -19 2 -27 5 -17 2 9 2 25 0 35 -3 9 -5 1 -5 -18z"/>
<path d="M2370 1861 c0 -5 5 -13 10 -16 6 -3 10 -2 10 4 0 5 -4 13 -10 16 -5
3 -10 2 -10 -4z"/>
<path d="M3027 1863 c-12 -11 -8 -21 17 -48 16 -17 27 -22 31 -15 4 7 -2 14
-13 17 -25 6 -37 34 -20 45 8 4 8 8 2 8 -6 0 -14 -3 -17 -7z"/>
<path d="M3523 1845 c0 -7 6 -11 14 -8 7 3 13 6 13 8 0 2 -6 5 -13 8 -8 3 -14
-1 -14 -8z"/>
<path d="M1021 1845 c1 -19 18 -51 18 -35 0 8 -4 22 -9 30 -5 8 -9 11 -9 5z"/>
<path d="M2755 1840 c-4 -6 -2 -10 4 -10 5 0 11 -7 13 -15 2 -8 8 -11 14 -7 6
4 4 13 -8 24 -10 10 -20 13 -23 8z"/>
<path d="M3058 1843 c7 -3 16 -2 19 1 4 3 -2 6 -13 5 -11 0 -14 -3 -6 -6z"/>
<path d="M1086 1808 c-7 -49 -6 -78 2 -78 4 0 8 25 8 55 0 63 -3 69 -10 23z"/>
<path d="M2360 1826 c0 -9 5 -16 10 -16 6 0 10 4 10 9 0 6 -4 13 -10 16 -5 3
-10 -1 -10 -9z"/>
<path d="M2731 1833 c-1 -6 -4 -20 -7 -30 -5 -17 -5 -17 6 0 6 10 9 23 6 30
-3 9 -5 9 -5 0z"/>
<path d="M3090 1820 c0 -11 4 -20 8 -20 4 0 8 9 8 20 0 11 -4 20 -8 20 -4 0
-8 -9 -8 -20z"/>
<path d="M4680 1830 c0 -5 5 -10 11 -10 5 0 7 5 4 10 -3 6 -8 10 -11 10 -2 0
-4 -4 -4 -10z"/>
<path d="M2265 1820 c3 -5 11 -10 16 -10 6 0 7 5 4 10 -3 6 -11 10 -16 10 -6
0 -7 -4 -4 -10z"/>
<path d="M2391 1814 c0 -11 3 -14 6 -6 3 7 2 16 -1 19 -3 4 -6 -2 -5 -13z"/>
<path d="M1162 1800 c0 -14 2 -19 5 -12 2 6 2 18 0 25 -3 6 -5 1 -5 -13z"/>
<path d="M2828 1813 c6 -2 18 -2 25 0 6 3 1 5 -13 5 -14 0 -19 -2 -12 -5z"/>
<path d="M2870 1801 c0 -6 5 -13 10 -16 6 -3 10 1 10 9 0 9 -4 16 -10 16 -5 0
-10 -4 -10 -9z"/>
<path d="M3245 1800 c3 -5 8 -10 11 -10 2 0 4 5 4 10 0 6 -5 10 -11 10 -5 0
-7 -4 -4 -10z"/>
<path d="M3540 1800 c-8 -5 -11 -12 -8 -16 4 -3 14 1 23 10 18 17 9 21 -15 6z"/>
<path d="M3598 1803 c-10 -2 -18 -8 -18 -13 0 -5 7 -7 15 -4 10 4 15 0 15 -11
0 -9 5 -13 10 -10 8 5 7 11 -1 21 -8 10 -8 14 -1 14 6 0 16 -8 21 -19 6 -10
18 -22 28 -25 12 -5 8 4 -11 23 -17 17 -32 30 -35 30 -3 -1 -14 -3 -23 -6z"/>
<path d="M4676 1794 c-8 -22 -7 -34 3 -34 5 0 9 11 9 25 0 29 -3 31 -12 9z"/>
<path d="M1104 1747 c1 -41 3 -52 10 -38 5 11 4 36 -1 58 -10 37 -10 36 -9
-20z"/>
<path d="M2250 1790 c0 -5 5 -10 10 -10 6 0 10 5 10 10 0 6 -4 10 -10 10 -5 0
-10 -4 -10 -10z"/>
<path d="M2290 1792 c0 -5 7 -9 15 -9 8 0 12 4 9 9 -3 4 -9 8 -15 8 -5 0 -9
-4 -9 -8z"/>
<path d="M2353 1795 c4 -5 -3 -15 -15 -22 -13 -7 -18 -12 -12 -13 5 0 18 6 29
13 15 12 16 15 4 22 -8 5 -10 4 -6 0z"/>
<path d="M2416 1777 c3 -10 9 -15 12 -12 3 3 0 11 -7 18 -10 9 -11 8 -5 -6z"/>
<path d="M2492 1702 c-2 -72 -5 -94 -17 -98 -26 -10 -17 -31 16 -38 34 -6 49
-1 49 17 0 8 -3 8 -12 -1 -17 -17 -25 -15 -31 7 -6 26 0 31 27 21 17 -6 23 -5
23 5 0 8 -9 13 -21 12 -19 -2 -21 4 -27 83 l-5 85 -2 -93z m-2 -112 c0 -5 -5
-10 -11 -10 -5 0 -7 5 -4 10 3 6 8 10 11 10 2 0 4 -4 4 -10z"/>
<path d="M3085 1781 c-3 -5 0 -13 6 -17 7 -4 9 -3 5 4 -3 5 0 13 6 15 9 4 10
6 1 6 -6 1 -14 -3 -18 -8z"/>
<path d="M2205 1768 c4 -11 2 -18 -4 -18 -6 0 -11 -10 -11 -22 0 -21 2 -20 15
6 11 21 13 32 5 40 -8 8 -9 6 -5 -6z"/>
<path d="M2388 1773 c21 -8 13 -25 -10 -18 -21 5 -21 5 2 -9 26 -15 36 -7 26
19 -3 8 -11 15 -18 14 -10 0 -10 -2 0 -6z"/>
<path d="M3175 1770 c-16 -7 -17 -9 -3 -9 9 -1 20 4 23 9 7 11 7 11 -20 0z"/>
<path d="M3463 1767 c-4 -6 0 -8 10 -4 9 3 17 1 19 -5 2 -6 8 -5 15 3 9 11 6
14 -13 15 -13 1 -27 -3 -31 -9z"/>
<path d="M3550 1770 c-9 -6 -10 -10 -3 -10 6 0 15 5 18 10 8 12 4 12 -15 0z"/>
<path d="M2249 1740 c11 -19 21 -44 21 -55 0 -11 4 -25 8 -32 4 -6 7 8 7 32 0
24 -3 38 -6 33 -4 -6 -10 -2 -13 10 -4 11 -14 26 -23 33 -10 9 -8 2 6 -21z"/>
<path d="M2460 1760 c0 -5 5 -10 11 -10 5 0 7 5 4 10 -3 6 -8 10 -11 10 -2 0
-4 -4 -4 -10z"/>
<path d="M2805 1765 c23 -8 85 -10 85 -3 0 4 -21 8 -47 7 -27 0 -43 -2 -38 -4z"/>
<path d="M3292 1760 c3 -8 1 -24 -4 -35 -8 -18 -8 -19 5 -3 8 10 17 15 20 11
4 -3 7 -2 7 4 0 6 -7 17 -17 24 -14 12 -16 12 -11 -1z"/>
<path d="M2302 1740 c0 -14 2 -19 5 -12 2 6 2 18 0 25 -3 6 -5 1 -5 -13z"/>
<path d="M2800 1746 c0 -9 40 -13 46 -5 3 5 -6 9 -20 9 -14 0 -26 -2 -26 -4z"/>
<path d="M3168 1743 c6 -2 10 -8 8 -11 -2 -4 3 -13 11 -21 12 -11 14 -10 11 5
-3 21 -17 34 -33 33 -5 0 -4 -3 3 -6z"/>
<path d="M3532 1732 c8 -9 14 -10 21 -3 7 7 17 5 30 -7 19 -16 20 -16 9 3 -7
13 -21 20 -40 20 -24 0 -28 -3 -20 -13z"/>
<path d="M4660 1735 c0 -8 0 -17 0 -20 0 -3 -7 -19 -15 -35 -9 -17 -13 -30
-11 -30 3 0 12 14 21 30 9 17 12 30 8 30 -4 0 -2 5 5 12 15 15 16 28 2 28 -5
0 -10 -7 -10 -15z"/>
<path d="M2755 1729 c-11 -17 -2 -18 19 -3 17 12 17 14 4 14 -9 0 -20 -5 -23
-11z"/>
<path d="M3683 1695 c-1 -26 1 -44 3 -42 8 7 11 66 4 76 -3 6 -7 -9 -7 -34z"/>
<path d="M2348 1723 c7 -3 16 -2 19 1 4 3 -2 6 -13 5 -11 0 -14 -3 -6 -6z"/>
<path d="M2450 1726 c0 -2 7 -7 16 -10 8 -3 12 -2 9 4 -6 10 -25 14 -25 6z"/>
<path d="M2377 1703 c-12 -12 -17 -13 -17 -4 0 9 -4 9 -15 -3 -8 -8 -15 -22
-15 -32 0 -9 -8 -22 -17 -29 -15 -11 -13 -13 17 -11 35 2 50 19 29 32 -9 5
-10 2 -6 -9 3 -10 2 -17 -3 -17 -11 0 -13 21 -4 45 5 11 9 13 14 5 4 -7 13 -2
24 14 19 30 17 33 -7 9z"/>
<path d="M2723 1705 c0 -8 4 -15 9 -15 4 0 8 4 8 9 0 6 -4 12 -8 15 -5 3 -9
-1 -9 -9z"/>
<path d="M3310 1713 c0 -5 5 -15 10 -23 7 -12 9 -10 7 8 -1 19 -17 33 -17 15z"/>
<path d="M2192 1670 c0 -19 2 -27 5 -17 2 9 2 25 0 35 -3 9 -5 1 -5 -18z"/>
<path d="M2753 1686 c4 -10 7 -22 7 -27 0 -5 4 -9 9 -9 12 0 2 38 -12 47 -7 4
-8 0 -4 -11z"/>
<path d="M3580 1690 c-13 -9 -13 -10 0 -10 11 -1 10 -4 -4 -15 -11 -8 -15 -15
-9 -15 13 0 26 18 29 38 3 14 3 14 -16 2z"/>
<path d="M2296 1677 c3 -10 9 -15 12 -12 3 3 0 11 -7 18 -10 9 -11 8 -5 -6z"/>
<path d="M2455 1660 c-3 -5 -1 -10 4 -10 6 0 11 5 11 10 0 6 -2 10 -4 10 -3 0
-8 -4 -11 -10z"/>
<path d="M1146 1630 c4 -16 2 -42 -4 -58 -7 -21 -6 -33 5 -48 14 -18 15 -17 8
13 -3 18 -2 34 4 38 6 3 11 -1 11 -11 0 -10 3 -15 6 -12 5 6 -25 108 -32 108
-2 0 -1 -13 2 -30z"/>
<path d="M3185 1651 c-3 -5 -2 -12 3 -15 5 -3 9 1 9 9 0 17 -3 19 -12 6z"/>
<path d="M2730 1640 c8 -5 22 -9 30 -9 10 0 8 3 -5 9 -27 12 -43 12 -25 0z"/>
<path d="M2930 1636 c0 -9 -8 -16 -17 -16 -16 0 -16 2 -3 11 10 7 11 9 2 7 -8
-2 -13 -7 -12 -12 1 -5 -3 -12 -9 -15 -6 -4 6 -7 26 -7 20 0 31 2 24 4 -9 3
-9 8 -1 17 8 9 8 15 0 20 -5 3 -10 -1 -10 -9z"/>
<path d="M3291 1637 c-1 -14 -6 -17 -23 -12 -21 5 -21 5 -5 -6 22 -13 43 1 34
23 -4 8 -6 7 -6 -5z"/>
<path d="M1091 1608 c5 -18 9 -34 9 -36 0 -2 5 0 10 3 6 3 10 0 11 -7 0 -7 5
2 11 21 6 22 6 37 -1 44 -7 7 -8 3 -5 -10 4 -13 0 -22 -10 -26 -11 -5 -16 -1
-16 13 0 10 -4 21 -9 25 -6 3 -6 -7 0 -27z"/>
<path d="M3412 1636 c4 -5 2 -14 -5 -20 -7 -6 -10 -10 -8 -9 2 2 10 -2 18 -9
7 -6 16 -8 20 -4 3 3 1 6 -5 6 -7 0 -12 4 -12 9 0 4 12 7 28 5 16 -2 19 -1 7
2 -11 4 -27 11 -35 17 -8 6 -12 7 -8 3z"/>
<path d="M3570 1633 c0 -12 29 -27 45 -24 6 1 1 -6 -9 -14 -11 -8 -29 -15 -40
-14 -21 0 -21 1 -1 9 11 5 15 9 9 9 -7 1 -25 -6 -40 -14 l-29 -15 25 -2 c38
-2 54 0 84 12 24 9 26 13 16 25 -7 9 -15 13 -18 10 -3 -3 -14 2 -24 12 -10 9
-18 11 -18 6z"/>
<path d="M2651 1614 c0 -11 3 -14 6 -6 3 7 2 16 -1 19 -3 4 -6 -2 -5 -13z"/>
<path d="M3108 1623 c6 -2 18 -2 25 0 6 3 1 5 -13 5 -14 0 -19 -2 -12 -5z"/>
<path d="M3645 1620 c-3 -5 -1 -10 4 -10 6 0 11 5 11 10 0 6 -2 10 -4 10 -3 0
-8 -4 -11 -10z"/>
<path d="M2161 1612 c4 -22 -4 -32 -23 -31 -17 1 -19 2 -5 6 9 2 17 8 17 13 0
4 -9 6 -20 3 -44 -12 -11 -42 37 -34 44 7 52 24 18 39 -14 6 -24 8 -24 4z m36
-28 c-3 -3 -12 -4 -19 -1 -8 3 -5 6 6 6 11 1 17 -2 13 -5z"/>
<path d="M3038 1613 c7 -3 16 -2 19 1 4 3 -2 6 -13 5 -11 0 -14 -3 -6 -6z"/>
<path d="M2675 1600 c3 -5 8 -10 11 -10 2 0 4 5 4 10 0 6 -5 10 -11 10 -5 0
-7 -4 -4 -10z"/>
<path d="M3098 1603 c7 -3 16 -2 19 1 4 3 -2 6 -13 5 -11 0 -14 -3 -6 -6z"/>
<path d="M3222 1601 c-7 -4 -25 -7 -40 -5 -17 2 -20 1 -7 -2 11 -3 24 -10 30
-15 13 -13 26 -11 23 2 -2 6 3 14 11 17 9 3 11 0 6 -8 -5 -9 -4 -11 3 -6 7 4
12 11 12 17 0 11 -20 12 -38 0z"/>
<path d="M3500 1606 c0 -2 7 -6 15 -10 8 -3 15 -1 15 4 0 6 -7 10 -15 10 -8 0
-15 -2 -15 -4z"/>
<path d="M2710 1592 c0 -17 16 -22 75 -24 76 -2 115 1 115 10 0 4 -39 6 -86 4
-64 -3 -89 0 -95 10 -7 10 -9 10 -9 0z"/>
<path d="M3020 1591 c0 -5 5 -13 10 -16 6 -3 10 -2 10 4 0 5 -4 13 -10 16 -5
3 -10 2 -10 -4z"/>
<path d="M4601 1574 c-6 -15 -10 -29 -7 -31 2 -2 7 5 11 16 3 12 11 21 16 21
5 0 9 5 9 10 0 19 -17 10 -29 -16z"/>
<path d="M2670 1576 c14 -8 27 -12 29 -10 6 6 -1 11 -29 18 l-25 7 25 -15z"/>
<path d="M2913 1574 c0 -16 13 -19 21 -5 3 5 0 11 -7 14 -8 3 -14 -1 -14 -9z"/>
<path d="M3068 1583 c7 -3 16 -2 19 1 4 3 -2 6 -13 5 -11 0 -14 -3 -6 -6z"/>
<path d="M3390 1586 c0 -2 7 -7 16 -10 8 -3 12 -2 9 4 -6 10 -25 14 -25 6z"/>
<path d="M3110 1560 c8 -5 20 -10 25 -10 6 0 3 5 -5 10 -8 5 -19 10 -25 10 -5
0 -3 -5 5 -10z"/>
<path d="M3158 1563 c7 -3 16 -2 19 1 4 3 -2 6 -13 5 -11 0 -14 -3 -6 -6z"/>
<path d="M1131 1510 c14 -31 19 -36 19 -24 0 6 -7 19 -16 30 -14 18 -14 18 -3
-6z"/>
<path d="M4580 1519 c0 -15 18 -19 23 -6 3 8 -1 14 -9 14 -8 0 -14 -4 -14 -8z"/>
<path d="M1178 1503 c6 -2 12 -11 12 -19 0 -9 -5 -12 -12 -8 -7 4 -8 3 -4 -4
4 -6 13 -9 21 -6 18 7 2 44 -18 43 -9 0 -9 -2 1 -6z"/>
<path d="M4552 1457 c-26 -50 -35 -87 -20 -87 5 0 8 6 5 14 -3 8 1 17 9 20 8
3 14 11 13 18 -3 26 1 39 11 33 6 -4 7 1 3 11 -4 12 -3 15 5 10 8 -5 10 -2 6
8 -3 9 -7 16 -8 16 0 0 -11 -19 -24 -43z"/>
<path d="M1161 1447 c-1 -11 28 -67 35 -67 2 0 0 8 -5 18 -6 11 -6 24 2 37 9
18 9 18 -5 7 -13 -10 -17 -10 -21 0 -3 7 -6 9 -6 5z"/>
<path d="M2123 1443 c-22 -8 -15 -33 10 -32 17 1 18 2 4 6 -14 4 -16 8 -6 19
12 15 11 15 -8 7z"/>
<path d="M2155 1440 c-3 -6 1 -7 9 -4 18 7 21 14 7 14 -6 0 -13 -4 -16 -10z"/>
<path d="M2428 1443 c7 -3 16 -2 19 1 4 3 -2 6 -13 5 -11 0 -14 -3 -6 -6z"/>
<path d="M2470 1440 c11 -7 7 -10 -20 -11 -34 -2 -34 -2 -5 -6 17 -2 36 -12
43 -21 6 -8 12 -11 12 -5 0 7 -4 14 -10 18 -5 3 -7 12 -3 20 3 10 -1 15 -13
15 -16 0 -17 -2 -4 -10z"/>
<path d="M2763 1443 c9 -2 25 -2 35 0 9 3 1 5 -18 5 -19 0 -27 -2 -17 -5z"/>
<path d="M2842 1436 c7 -8 15 -12 17 -11 5 6 -10 25 -20 25 -5 0 -4 -6 3 -14z"/>
<path d="M3037 1443 c-12 -12 -7 -23 11 -23 14 0 15 2 2 10 -11 7 -4 10 28 10
28 0 41 -4 40 -12 -2 -10 20 -13 82 -14 l85 -1 -85 7 c-63 5 -74 7 -40 9 l45
4 -50 7 c-65 11 -110 12 -118 3z"/>
<path d="M3326 1435 c4 -8 10 -15 15 -15 4 0 6 7 3 15 -4 8 -10 15 -15 15 -4
0 -6 -7 -3 -15z"/>
<path d="M1220 1431 c0 -6 5 -13 10 -16 6 -3 10 -12 10 -18 -1 -7 -10 -1 -20
12 -11 13 -20 19 -20 13 0 -5 7 -15 15 -22 8 -7 12 -16 9 -21 -3 -5 0 -9 5 -9
6 0 11 5 11 11 0 6 7 9 15 5 11 -4 8 4 -7 24 -23 32 -28 35 -28 21z"/>
<path d="M1310 1420 c6 -11 13 -20 16 -20 2 0 0 9 -6 20 -6 11 -13 20 -16 20
-2 0 0 -9 6 -20z"/>
<path d="M2386 1424 c-8 -20 -8 -24 2 -24 4 0 8 9 9 20 2 24 -3 26 -11 4z"/>
<path d="M2719 1427 c5 -5 26 -7 47 -5 l39 3 -47 5 c-26 3 -43 1 -39 -3z"/>
<path d="M3420 1423 c0 -16 11 -18 127 -15 113 3 128 2 140 -14 12 -16 13 -16
13 -1 0 24 -31 29 -158 25 -87 -2 -111 0 -107 10 2 6 0 12 -5 12 -6 0 -10 -8
-10 -17z"/>
<path d="M3538 1433 c12 -2 32 -2 45 0 12 2 2 4 -23 4 -25 0 -35 -2 -22 -4z"/>
<path d="M2229 1422 c11 -8 10 -11 -5 -15 -16 -4 -15 -5 4 -6 25 -1 26 20 1
27 -12 3 -12 2 0 -6z"/>
<path d="M2700 1411 c0 -5 5 -13 10 -16 6 -3 10 -2 10 4 0 5 -4 13 -10 16 -5
3 -10 2 -10 -4z"/>
<path d="M2860 1400 c0 -5 5 -10 11 -10 5 0 7 5 4 10 -3 6 -8 10 -11 10 -2 0
-4 -4 -4 -10z"/>
<path d="M3030 1395 c0 -8 4 -15 10 -15 5 0 7 7 4 15 -4 8 -8 15 -10 15 -2 0
-4 -7 -4 -15z"/>
<path d="M3290 1400 c0 -6 -11 -15 -25 -20 -14 -5 -25 -14 -25 -20 0 -6 14 -2
30 10 26 19 40 40 25 40 -3 0 -5 -5 -5 -10z"/>
<path d="M2690 1382 c0 -4 9 -13 20 -20 11 -7 20 -9 20 -4 0 4 -9 13 -20 20
-11 7 -20 9 -20 4z"/>
<path d="M3110 1380 l-25 -7 25 -4 c15 -3 27 -13 31 -29 4 -16 7 -19 8 -7 1 9
6 17 11 17 6 0 10 5 10 11 0 6 -6 9 -14 6 -8 -3 -16 0 -18 7 -2 8 -12 10 -28
6z"/>
<path d="M3199 1371 c-19 -15 -21 -22 -13 -42 7 -15 13 -19 18 -11 4 7 2 12
-3 12 -15 0 -14 27 2 36 6 4 9 4 5 -1 -4 -4 -2 -15 5 -23 13 -17 18 -282 5
-282 -5 0 -8 -5 -8 -12 0 -8 3 -9 10 -2 12 12 17 344 5 344 -2 0 -13 -8 -26
-19z"/>
<path d="M3330 1379 c0 -5 5 -7 10 -4 6 3 10 8 10 11 0 2 -4 4 -10 4 -5 0 -10
-5 -10 -11z"/>
<path d="M3550 1378 c0 -5 9 -8 19 -8 11 0 22 3 24 8 3 4 -6 7 -19 7 -13 0
-24 -3 -24 -7z"/>
<path d="M1209 1353 c12 -24 31 -39 31 -25 0 5 -10 17 -21 28 -22 19 -22 19
-10 -3z"/>
<path d="M1254 1351 c3 -13 1 -33 -5 -43 -5 -10 -7 -18 -5 -18 15 0 25 40 16
62 l-11 23 5 -24z"/>
<path d="M3520 1359 c0 -5 5 -7 10 -4 6 3 10 8 10 11 0 2 -4 4 -10 4 -5 0 -10
-5 -10 -11z"/>
<path d="M4492 1343 c-12 -32 -12 -64 -1 -57 5 2 5 12 2 21 -4 11 -3 14 5 9 8
-5 10 -1 5 10 -4 11 -3 15 4 11 7 -5 9 0 6 13 -7 26 -9 25 -21 -7z"/>
<path d="M2250 1351 c0 -5 5 -13 10 -16 6 -3 10 -2 10 4 0 5 -4 13 -10 16 -5
3 -10 2 -10 -4z"/>
<path d="M2360 1347 c0 -7 7 -22 15 -33 13 -17 14 -16 4 14 -11 33 -19 41 -19
19z"/>
<path d="M2684 1338 c1 -29 21 -45 32 -26 5 7 2 8 -6 3 -9 -6 -10 -2 -5 15 5
14 3 20 -3 16 -6 -3 -12 0 -15 6 -2 7 -4 1 -3 -14z"/>
<path d="M2766 1334 c-9 -33 0 -44 9 -12 4 13 13 26 19 30 7 5 5 8 -5 8 -10 0
-20 -11 -23 -26z"/>
<path d="M2739 1329 c-5 -24 7 -77 15 -68 2 2 0 24 -3 49 -6 37 -8 41 -12 19z"/>
<path d="M1279 1313 c-13 -16 -12 -17 4 -4 9 7 17 15 17 17 0 8 -8 3 -21 -13z"/>
<path d="M2351 1313 c-1 -6 -4 -20 -7 -30 -5 -17 -5 -17 6 0 6 10 9 23 6 30
-3 9 -5 9 -5 0z"/>
<path d="M2897 1300 c3 -11 9 -22 13 -25 5 -3 6 4 3 15 -3 11 -9 22 -13 25 -5
3 -6 -4 -3 -15z"/>
<path d="M1287 1289 c-11 -15 -16 -17 -20 -7 -4 9 -6 9 -6 1 -2 -23 17 -22 33
2 20 30 13 34 -7 4z"/>
<path d="M2258 1294 c12 -8 19 -20 16 -26 -4 -7 -2 -8 4 -4 7 4 12 9 12 11 0
9 -32 35 -43 35 -6 0 -1 -7 11 -16z"/>
<path d="M2810 1295 c0 -8 2 -15 4 -15 2 0 6 7 10 15 3 8 1 15 -4 15 -6 0 -10
-7 -10 -15z"/>
<path d="M3145 1186 c0 -106 3 -130 15 -133 11 -3 12 -2 3 4 -8 6 -13 50 -16
133 l-3 125 1 -129z"/>
<path d="M3528 1288 c10 -13 10 -17 0 -21 -9 -4 -9 -6 -1 -6 20 -2 24 16 5 30
-15 13 -16 12 -4 -3z"/>
<path d="M4460 1286 c0 -8 4 -17 9 -20 5 -4 7 3 4 14 -6 23 -13 26 -13 6z"/>
<path d="M1306 1282 c-3 -5 1 -9 9 -9 8 0 12 4 9 9 -3 4 -7 8 -9 8 -2 0 -6 -4
-9 -8z"/>
<path d="M2361 1272 c-16 -31 -13 -51 4 -22 8 14 14 19 15 11 0 -8 3 -12 6 -8
3 3 1 13 -4 23 -9 16 -10 16 -21 -4z"/>
<path d="M2835 1280 c3 -5 8 -10 11 -10 2 0 4 5 4 10 0 6 -5 10 -11 10 -5 0
-7 -4 -4 -10z"/>
<path d="M2241 1264 c0 -11 3 -14 6 -6 3 7 2 16 -1 19 -3 4 -6 -2 -5 -13z"/>
<path d="M2710 1269 c0 -5 5 -7 10 -4 6 3 10 8 10 11 0 2 -4 4 -10 4 -5 0 -10
-5 -10 -11z"/>
<path d="M3580 1269 c0 -4 -8 -10 -17 -12 -10 -2 -4 -4 14 -3 17 0 29 4 26 9
-2 4 1 7 6 7 6 0 11 -3 12 -7 0 -5 2 -16 4 -25 2 -10 -4 -22 -13 -28 -10 -5
-12 -10 -5 -10 24 0 39 46 22 66 -11 13 -49 15 -49 3z"/>
<path d="M4437 1263 c-2 -4 -3 -16 -1 -26 2 -13 -2 -17 -12 -13 -9 3 -12 1 -9
-4 3 -6 1 -10 -6 -10 -7 0 -9 -3 -6 -6 10 -11 56 24 53 40 -3 20 -13 30 -19
19z"/>
<path d="M1294 1239 c-15 -17 -15 -19 0 -25 9 -3 13 -11 9 -18 -4 -6 2 -4 12
4 17 14 18 13 12 -5 -6 -17 -4 -17 13 4 35 40 -10 80 -46 40z m38 -7 c-4 -11
-1 -13 8 -7 8 5 11 4 7 -3 -4 -5 -15 -9 -25 -7 -9 2 -21 4 -25 4 -12 1 16 28
29 28 7 0 10 -7 6 -15z"/>
<path d="M2646 1243 c-6 -14 -5 -15 5 -6 7 7 10 15 7 18 -3 3 -9 -2 -12 -12z"/>
<path d="M2733 1234 c0 -17 2 -22 7 -13 5 6 6 18 3 26 -8 19 -10 16 -10 -13z"/>
<path d="M1420 1236 c0 -2 8 -10 18 -17 15 -13 16 -12 3 4 -13 16 -21 21 -21
13z"/>
<path d="M2386 1225 c-3 -9 -11 -13 -17 -9 -8 4 -9 3 -5 -4 4 -7 11 -12 16
-12 9 0 23 31 16 37 -2 2 -6 -3 -10 -12z"/>
<path d="M2836 1225 c8 -20 -13 -45 -40 -45 -11 0 -27 -4 -34 -9 -11 -6 -10
-11 3 -25 9 -9 22 -16 28 -16 8 0 7 3 -2 9 -7 5 -9 11 -5 13 5 3 3 3 -3 2 -7
-2 -13 1 -13 6 0 6 11 10 24 10 40 0 74 48 46 65 -6 3 -7 -1 -4 -10z"/>
<path d="M3540 1230 c0 -5 5 -10 11 -10 5 0 7 5 4 10 -3 6 -8 10 -11 10 -2 0
-4 -4 -4 -10z"/>
<path d="M2187 1213 c3 -7 9 -10 14 -7 14 8 11 21 -5 21 -8 0 -12 -6 -9 -14z"/>
<path d="M2433 1215 c-17 -19 -16 -26 1 -19 15 6 30 34 18 34 -4 -1 -13 -7
-19 -15z"/>
<path d="M2890 1215 c0 -8 4 -15 10 -15 5 0 7 7 4 15 -4 8 -8 15 -10 15 -2 0
-4 -7 -4 -15z"/>
<path d="M3203 1155 c0 -44 2 -61 4 -37 2 23 2 59 0 80 -2 20 -4 1 -4 -43z"/>
<path d="M2465 1190 c-4 -18 -13 -30 -22 -30 -9 0 -14 -3 -10 -6 14 -15 42 8
44 36 3 39 -4 39 -12 0z"/>
<path d="M2933 1188 c1 -19 7 -35 13 -35 9 0 9 9 1 31 -14 43 -16 43 -14 4z"/>
<path d="M1347 1181 c-16 -27 -15 -29 14 -62 17 -19 28 -29 25 -23 -3 7 2 18
11 25 14 12 15 11 9 -8 -4 -12 -2 -24 4 -28 6 -3 8 -11 5 -16 -4 -5 3 -21 14
-35 12 -15 21 -22 21 -17 0 6 -7 16 -15 23 -16 13 -21 35 -6 26 5 -3 15 1 22
10 11 13 8 20 -19 45 -18 17 -32 35 -32 42 0 7 -5 5 -10 -5 -8 -13 -21 -16
-48 -9 -1 1 3 11 9 23 12 22 12 22 20 3 5 -13 8 -15 8 -5 1 34 -15 40 -32 11z
m41 -50 c-12 -19 -28 -19 -28 0 0 6 4 8 9 4 5 -3 12 -1 16 5 3 5 8 10 11 10 2
0 -1 -9 -8 -19z m55 -52 c-8 -8 -14 -6 -22 9 -13 25 -2 37 18 17 11 -11 12
-18 4 -26z"/>
<path d="M2171 1194 c0 -11 3 -14 6 -6 3 7 2 16 -1 19 -3 4 -6 -2 -5 -13z"/>
<path d="M2305 1178 c2 -21 0 -38 -6 -38 -5 0 -9 -4 -9 -10 0 -15 17 -12 23 3
3 8 1 29 -4 48 l-9 34 5 -37z"/>
<path d="M3538 1203 c7 -3 16 -2 19 1 4 3 -2 6 -13 5 -11 0 -14 -3 -6 -6z"/>
<path d="M2255 1172 c15 -30 35 -36 35 -9 0 7 -4 6 -10 -3 -5 -8 -10 -10 -10
-4 0 5 -7 19 -15 30 -14 16 -14 15 0 -14z"/>
<path d="M2726 1192 c-2 -4 4 -9 15 -9 11 -1 17 2 14 8 -7 11 -22 12 -29 1z"/>
<path d="M2340 1185 c1 -6 7 -21 16 -35 l15 -25 -7 25 c-7 26 -24 52 -24 35z"/>
<path d="M2435 1180 c-3 -5 -1 -10 4 -10 6 0 11 5 11 10 0 6 -2 10 -4 10 -3 0
-8 -4 -11 -10z"/>
<path d="M4377 1171 c-10 -12 -9 -13 3 -6 8 5 21 10 28 11 24 4 25 13 3 11
-12 -1 -28 -8 -34 -16z"/>
<path d="M2190 1164 c0 -8 -3 -13 -7 -11 -5 3 -6 -20 -5 -50 2 -30 6 -52 9
-50 5 6 11 127 6 127 -2 0 -3 -7 -3 -16z"/>
<path d="M2623 1150 c0 -23 3 -28 9 -16 5 9 5 23 0 32 -6 12 -9 7 -9 -16z"/>
<path d="M2836 1153 c-6 -14 -5 -15 5 -6 7 7 10 15 7 18 -3 3 -9 -2 -12 -12z"/>
<path d="M1480 1156 c0 -2 8 -10 18 -17 15 -13 16 -12 3 4 -13 16 -21 21 -21
13z"/>
<path d="M2330 1136 c0 -13 -6 -27 -12 -29 -8 -3 -6 -6 5 -6 12 -1 17 7 17 29
0 17 -2 30 -5 30 -3 0 -5 -11 -5 -24z"/>
<path d="M2651 1134 c0 -11 3 -14 6 -6 3 7 2 16 -1 19 -3 4 -6 -2 -5 -13z"/>
<path d="M2676 1135 c-3 -9 -6 -22 -5 -28 0 -7 5 -1 10 12 5 13 8 26 5 28 -2
2 -6 -3 -10 -12z"/>
<path d="M2728 1143 c7 -3 16 -2 19 1 4 3 -2 6 -13 5 -11 0 -14 -3 -6 -6z"/>
<path d="M2693 1098 c-5 -18 -15 -32 -21 -30 -7 1 -12 -2 -12 -8 0 -5 -10 -10
-22 -10 -19 0 -20 2 -8 11 12 9 12 10 -4 5 -11 -4 -23 -1 -28 6 -6 10 -8 9 -8
-4 0 -21 59 -34 88 -19 10 6 22 25 26 42 8 43 1 47 -11 7z"/>
<path d="M2720 1123 c0 -5 11 -8 25 -8 14 0 25 3 25 8 0 4 -11 7 -25 7 -14 0
-25 -3 -25 -7z"/>
<path d="M2800 1120 c-8 -5 -10 -10 -5 -10 6 0 17 5 25 10 8 5 11 10 5 10 -5
0 -17 -5 -25 -10z"/>
<path d="M2840 1126 c0 -2 7 -9 15 -16 13 -11 14 -10 9 4 -5 14 -24 23 -24 12z"/>
<path d="M3524 1119 c-2 -3 12 -5 31 -3 20 1 33 -2 29 -7 -3 -5 0 -9 7 -9 8 0
7 -5 -2 -17 -13 -15 -12 -15 9 -2 12 8 18 15 12 17 -5 2 -10 8 -10 14 0 6 19
9 44 7 24 -2 42 -1 39 4 -5 8 -153 5 -159 -4z"/>
<path d="M4344 1106 c1 -10 -5 -21 -13 -24 -9 -3 -11 0 -6 9 5 8 -1 6 -13 -5
-12 -10 -21 -21 -20 -25 2 -19 -3 -31 -12 -26 -5 3 -10 1 -10 -4 0 -6 5 -11
11 -11 5 0 8 -4 4 -9 -3 -6 -14 -8 -24 -6 -12 2 -31 -10 -52 -33 -19 -20 -27
-31 -19 -24 20 17 35 15 20 -3 -9 -10 -9 -15 -1 -15 6 0 12 5 12 10 2 14 5 22
14 43 6 15 10 16 16 5 7 -10 9 -11 9 0 0 7 4 11 9 8 8 -5 49 32 44 40 -8 12
-1 24 10 18 6 -4 9 -4 5 1 -4 4 0 14 10 21 9 7 17 18 17 26 1 7 6 12 13 11 7
-2 12 1 12 6 0 6 -8 9 -19 8 -11 -1 -18 -8 -17 -21z"/>
<path d="M2600 1106 c0 -8 5 -18 10 -21 6 -3 10 1 10 9 0 8 -4 18 -10 21 -5 3
-10 -1 -10 -9z"/>
<path d="M2967 1095 c6 -32 11 -41 17 -34 2 2 -2 18 -10 34 l-13 30 6 -30z"/>
<path d="M2631 1094 c0 -11 3 -14 6 -6 3 7 2 16 -1 19 -3 4 -6 -2 -5 -13z"/>
<path d="M3535 1090 c27 -12 43 -12 25 0 -8 5 -22 9 -30 9 -10 0 -8 -3 5 -9z"/>
<path d="M3690 1095 c-8 -45 -8 -47 2 -37 5 5 8 18 5 28 -3 11 -6 15 -7 9z"/>
<path d="M2162 1070 c0 -14 2 -19 5 -12 2 6 2 18 0 25 -3 6 -5 1 -5 -13z"/>
<path d="M2116 1058 c3 -4 12 -8 20 -8 8 0 14 4 14 8 0 4 -9 8 -19 8 -11 0
-17 -4 -15 -8z"/>
<path d="M2430 1058 c0 -4 9 -8 20 -8 11 0 20 4 20 8 0 4 -9 8 -20 8 -11 0
-20 -4 -20 -8z"/>
<path d="M2930 1066 c0 -3 9 -10 20 -16 11 -6 20 -8 20 -6 0 3 -9 10 -20 16
-11 6 -20 8 -20 6z"/>
<path d="M3426 1058 c3 -4 11 -5 19 -1 21 7 19 12 -4 10 -11 0 -18 -5 -15 -9z"/>
<path d="M3507 1059 c13 -5 8 -8 -17 -10 -19 -2 12 -4 70 -4 58 0 90 1 71 3
-19 2 -30 7 -24 10 6 4 -18 7 -53 7 -35 0 -56 -3 -47 -6z"/>
<path d="M2905 1050 c3 -5 8 -10 11 -10 2 0 4 5 4 10 0 6 -5 10 -11 10 -5 0
-7 -4 -4 -10z"/>
<path d="M1480 1045 c0 -2 29 -34 64 -70 35 -36 60 -68 55 -71 -4 -2 -5 -12
-2 -22 6 -15 5 -16 -13 -2 -18 14 -18 14 -5 -3 10 -13 17 -15 27 -6 12 9 14 7
12 -12 -3 -20 1 -24 20 -22 20 3 27 -7 23 -31 -1 -5 5 -4 13 4 16 13 22 25 9
17 -5 -2 -19 9 -33 26 -22 28 -23 30 -5 23 11 -4 -20 34 -70 83 -89 90 -95 95
-95 86z m150 -155 c0 -5 -7 -7 -15 -4 -8 4 -12 10 -9 15 6 11 24 2 24 -11z
m10 -40 c0 -5 -4 -10 -10 -10 -5 0 -10 5 -10 10 0 6 5 10 10 10 6 0 10 -4 10
-10z"/>
<path d="M1495 990 c3 -5 8 -10 11 -10 2 0 4 5 4 10 0 6 -5 10 -11 10 -5 0 -7
-4 -4 -10z"/>
<path d="M1510 949 c6 -10 16 -16 24 -13 7 3 19 -3 27 -12 13 -16 12 -17 -6
-10 -16 6 -18 5 -7 -5 8 -9 15 -10 22 -3 7 7 2 18 -15 34 -33 31 -59 36 -45 9z"/>
<path d="M1670 946 c0 -2 8 -10 18 -17 15 -13 16 -12 3 4 -13 16 -21 21 -21
13z"/>
<path d="M4146 911 c-12 -13 -14 -21 -6 -26 5 -3 7 -11 4 -17 -4 -6 -10 -5
-15 3 -7 11 -9 11 -9 1 0 -7 -4 -10 -10 -7 -5 3 -10 1 -10 -5 0 -6 -5 -8 -12
-4 -10 6 -10 5 0 -8 17 -21 -7 -44 -28 -25 -10 9 -11 9 -6 0 4 -8 2 -13 -6
-13 -9 0 -9 -3 2 -10 17 -10 64 26 54 42 -3 5 0 8 8 6 8 -2 33 13 56 33 34 29
39 38 27 43 -9 3 -14 2 -11 -3 3 -4 -3 -16 -13 -25 -13 -11 -21 -14 -26 -7 -3
6 -2 11 3 11 6 0 12 7 16 15 7 20 3 19 -18 -4z"/>
<path d="M1689 842 c19 -16 22 -22 12 -39 -8 -16 -7 -24 4 -33 23 -19 39 -1
19 21 -9 10 -12 19 -6 19 6 0 14 -4 17 -10 3 -5 12 -10 18 -10 13 0 -36 44
-68 61 -14 7 -13 5 4 -9z m36 -62 c3 -5 2 -10 -4 -10 -5 0 -13 5 -16 10 -3 6
-2 10 4 10 5 0 13 -4 16 -10z"/>
<path d="M3997 782 c-10 -10 -14 -21 -11 -25 3 -3 -2 -5 -12 -5 -11 1 -31 -6
-46 -16 -32 -21 -38 -32 -10 -17 13 7 23 6 32 -2 7 -7 10 -7 7 -2 -3 6 9 17
26 25 17 7 26 15 19 18 -7 2 -9 8 -6 13 4 6 11 6 19 -1 15 -12 30 3 20 20 -9
15 -20 12 -38 -8z"/>
<path d="M1767 769 c7 -7 15 -10 18 -7 3 3 -2 9 -12 12 -14 6 -15 5 -6 -5z"/>
<path d="M1800 751 c0 -5 5 -13 10 -16 6 -3 10 -2 10 4 0 5 -4 13 -10 16 -5 3
-10 2 -10 -4z"/>
<path d="M1748 738 c8 -10 20 -14 29 -11 10 4 14 2 10 -4 -3 -5 8 -20 25 -33
17 -12 28 -19 25 -13 -9 14 27 33 44 23 10 -7 8 -11 -11 -19 -14 -5 -19 -10
-12 -10 7 -1 10 -5 7 -11 -3 -5 -3 -10 2 -10 4 0 13 11 19 25 10 21 9 26 -10
38 -21 14 -37 15 -69 2 -12 -5 -17 -3 -15 6 2 8 -4 14 -12 14 -8 0 -22 5 -30
10 -13 7 -13 6 -2 -7z m97 -34 c-10 -8 -22 -11 -28 -7 -11 7 7 20 30 20 13 0
13 -2 -2 -13z"/>
<path d="M3904 696 c-10 -8 -16 -17 -13 -20 3 -3 14 3 24 14 21 23 17 26 -11
6z"/>
<path d="M1917 678 c7 -8 11 -17 8 -20 -3 -3 1 -10 9 -17 11 -9 15 -8 19 3 4
9 -5 21 -21 32 -20 13 -24 14 -15 2z"/>
<path d="M3816 654 c-4 -9 -12 -14 -22 -10 -10 4 -13 2 -8 -6 5 -7 2 -9 -9 -5
-11 4 -14 2 -10 -9 3 -10 0 -12 -10 -8 -20 7 -29 -8 -15 -26 8 -12 9 -12 4 3
-4 14 -1 16 19 13 14 -3 24 0 22 6 -1 6 4 13 12 16 9 3 11 0 6 -9 -5 -8 -4
-11 1 -6 5 5 9 12 9 15 0 4 4 13 9 20 4 7 6 15 3 18 -2 3 -7 -3 -11 -12z"/>
<path d="M1900 646 c0 -2 8 -10 18 -17 15 -13 16 -12 3 4 -13 16 -21 21 -21
13z"/>
<path d="M1956 625 c-11 -8 -15 -15 -10 -15 6 0 15 5 20 10 7 7 19 7 35 1 22
-9 12 -16 -18 -12 -7 1 -13 -2 -13 -7 0 -17 13 -22 28 -9 13 10 15 9 9 -5 -4
-12 -2 -15 9 -11 8 3 13 12 10 20 -4 9 -1 13 6 10 7 -2 13 -11 13 -20 0 -20
34 -47 51 -40 7 2 15 0 19 -6 3 -6 14 -11 23 -11 19 0 -32 30 -62 36 -22 4
-34 14 -18 14 22 0 12 19 -15 33 -47 24 -67 27 -87 12z"/>
<path d="M3670 578 c-25 -17 -36 -28 -25 -24 11 5 32 9 47 10 15 1 31 6 35 10
4 5 -5 6 -21 2 l-30 -7 25 20 c36 30 20 25 -31 -11z"/>
<path d="M2090 586 c0 -3 14 -12 30 -21 17 -9 30 -13 30 -11 0 3 -13 12 -30
21 -16 9 -30 13 -30 11z"/>
<path d="M3560 540 c-22 -12 -28 -19 -17 -20 9 0 17 -5 17 -11 0 -5 5 -7 11
-3 8 5 8 9 -1 14 -9 6 -4 13 16 24 16 8 25 15 19 15 -5 0 -26 -8 -45 -19z"/>
<path d="M2168 543 c7 -3 16 -2 19 1 4 3 -2 6 -13 5 -11 0 -14 -3 -6 -6z"/>
<path d="M2205 530 c5 -8 2 -10 -11 -6 -11 3 -26 1 -34 -5 -11 -8 -9 -9 9 -4
19 6 23 4 18 -8 -4 -11 -2 -14 9 -10 7 3 14 9 14 14 0 5 5 9 10 9 6 0 10 -8
10 -17 0 -16 2 -16 11 -3 9 12 10 11 6 -7 -3 -15 -1 -20 9 -16 19 7 6 32 -28
49 -19 10 -27 11 -23 4z"/>
<path d="M3600 530 c-8 -5 -10 -10 -5 -10 6 0 17 5 25 10 8 5 11 10 5 10 -5 0
-17 -5 -25 -10z"/>
<path d="M3516 505 c10 -8 23 -15 28 -15 6 0 1 7 -10 15 -10 8 -23 15 -28 15
-6 0 -1 -7 10 -15z"/>
<path d="M2270 506 c0 -2 9 -6 20 -9 11 -3 18 -1 14 4 -5 9 -34 13 -34 5z"/>
<path d="M3445 500 c-13 -6 -15 -9 -5 -9 8 0 22 4 30 9 18 12 2 12 -25 0z"/>
<path d="M2333 483 c-10 -3 -9 -8 3 -20 8 -8 18 -12 22 -9 3 4 0 11 -7 15 -11
7 -11 10 0 14 8 3 10 5 4 5 -5 0 -16 -2 -22 -5z"/>
<path d="M3385 480 c-16 -7 -17 -9 -3 -9 9 -1 20 4 23 9 7 11 7 11 -20 0z"/>
<path d="M2270 470 c-18 -12 -2 -12 25 0 13 6 15 9 5 9 -8 0 -22 -4 -30 -9z"/>
<path d="M2375 470 c3 -5 14 -10 23 -10 15 0 15 2 2 10 -20 13 -33 13 -25 0z"/>
<path d="M3420 470 c-13 -8 -12 -10 3 -10 9 0 17 5 17 10 0 12 -1 12 -20 0z"/>
<path d="M3460 470 c-8 -5 -10 -10 -5 -10 6 0 17 5 25 10 8 5 11 10 5 10 -5 0
-17 -5 -25 -10z"/>
<path d="M3271 461 c-12 -8 -9 -11 12 -17 16 -3 31 -4 34 0 4 3 -5 7 -18 7
-18 1 -15 3 11 9 35 7 35 7 5 9 -16 0 -37 -3 -44 -8z"/>
<path d="M2298 453 c7 -3 16 -2 19 1 4 3 -2 6 -13 5 -11 0 -14 -3 -6 -6z"/>
<path d="M2668 453 c7 -3 16 -2 19 1 4 3 -2 6 -13 5 -11 0 -14 -3 -6 -6z"/>
<path d="M3380 450 c8 -5 20 -10 25 -10 6 0 3 5 -5 10 -8 5 -19 10 -25 10 -5
0 -3 -5 5 -10z"/>
<path d="M2370 446 c0 -2 9 -6 20 -9 11 -3 18 -1 14 4 -5 9 -34 13 -34 5z"/>
<path d="M2430 440 c12 -8 12 -10 1 -10 -8 0 -12 -2 -9 -5 3 -3 13 -3 22 1 19
7 11 24 -12 24 -15 0 -15 -2 -2 -10z"/>
<path d="M2471 430 c-17 -15 -19 -20 -8 -20 9 0 20 6 24 14 4 8 17 16 28 19
l20 5 -20 1 c-11 0 -31 -9 -44 -19z"/>
<path d="M3228 443 c7 -3 16 -2 19 1 4 3 -2 6 -13 5 -11 0 -14 -3 -6 -6z"/>
<path d="M2575 420 c-3 -5 -1 -10 4 -10 6 0 11 5 11 10 0 6 -2 10 -4 10 -3 0
-8 -4 -11 -10z"/>
<path d="M2637 419 c7 -7 15 -10 18 -7 3 3 -2 9 -12 12 -14 6 -15 5 -6 -5z"/>
<path d="M2655 400 c-52 -21 -42 -21 35 0 38 10 51 10 80 -3 l35 -15 -56 5
c-31 3 -59 1 -62 -4 -7 -10 140 -9 150 1 4 3 -5 6 -18 7 -22 0 -23 1 -4 9 17
7 16 8 -10 9 -16 0 -46 2 -65 5 -22 3 -53 -2 -85 -14z"/>
<path d="M3035 411 c3 -5 -1 -12 -7 -14 -8 -4 -7 -6 4 -6 23 -1 32 15 12 23
-8 3 -13 2 -9 -3z"/>
<path d="M3088 413 c7 -3 16 -2 19 1 4 3 -2 6 -13 5 -11 0 -14 -3 -6 -6z"/>
<path d="M3128 413 c7 -3 16 -2 19 1 4 3 -2 6 -13 5 -11 0 -14 -3 -6 -6z"/>
<path d="M3180 410 c0 -5 -19 -10 -42 -10 -28 0 -38 -3 -29 -9 15 -10 78 2 94
18 8 8 6 11 -6 11 -9 0 -17 -4 -17 -10z"/>
<path d="M2508 403 c7 -3 16 -2 19 1 4 3 -2 6 -13 5 -11 0 -14 -3 -6 -6z"/>
<path d="M2550 399 c0 -5 9 -9 20 -9 11 0 20 2 20 4 0 2 -9 6 -20 9 -11 3 -20
1 -20 -4z"/>
<path d="M2968 403 c6 -2 18 -2 25 0 6 3 1 5 -13 5 -14 0 -19 -2 -12 -5z"/>
<path d="M2863 393 c9 -2 25 -2 35 0 9 3 1 5 -18 5 -19 0 -27 -2 -17 -5z"/>
<path d="M2938 383 c12 -2 32 -2 45 0 12 2 2 4 -23 4 -25 0 -35 -2 -22 -4z"/>
<path d="M2856 370 c7 -7 19 -7 35 -1 23 9 22 10 -10 10 -24 1 -32 -2 -25 -9z"/>
</g>
</svg>
